Preview_AmstelvarRoman-11-opsz_144.00_wght_400.00_wdth_50.00.ufo
<glyph name="percent" format="2">
  <advance width="1331"/>
  <unicode hex="0025"/>
  <outline>
    <contour>
      <point x="38.0" y="1131.0" type="qcurve" smooth="yes"/>
      <point x="38.0" y="1294.0"/>
      <point x="212.03225806451616" y="1521.0"/>
      <point x="333.5967741935484" y="1521.0" type="qcurve" smooth="yes"/>
      <point x="468.4435483870968" y="1521.0"/>
      <point x="632.0403225806451" y="1311.0"/>
      <point x="632.0403225806451" y="1137.0" type="qcurve" smooth="yes"/>
      <point x="632.0403225806451" y="963.0"/>
      <point x="471.2903225806451" y="722.0"/>
      <point x="336.7258064516129" y="722.0" type="qcurve" smooth="yes"/>
      <point x="201.8790322580645" y="722.0"/>
      <point x="38.0" y="968.0"/>
    </contour>
    <contour>
      <point x="162.56451612903226" y="1146.0" type="qcurve" smooth="yes"/>
      <point x="163.56451612903226" y="985.0"/>
      <point x="246.75" y="741.0"/>
      <point x="334.44354838709677" y="741.0" type="qcurve" smooth="yes"/>
      <point x="427.11290322580646" y="741.0"/>
      <point x="506.60483870967744" y="958.0"/>
      <point x="506.60483870967744" y="1138.0" type="qcurve" smooth="yes"/>
      <point x="506.60483870967744" y="1318.0"/>
      <point x="422.41935483870975" y="1503.0"/>
      <point x="334.7258064516129" y="1503.0" type="qcurve" smooth="yes"/>
      <point x="241.49193548387098" y="1503.0"/>
      <point x="161.0" y="1307.0"/>
    </contour>
    <contour>
      <point x="311.6774193548387" y="-5.0" type="line"/>
      <point x="1005.0" y="1527.0" type="line"/>
      <point x="1040.0" y="1509.0" type="line"/>
      <point x="345.6774193548387" y="-24.0" type="line"/>
    </contour>
    <contour>
      <point x="700.3548387096776" y="396.0" type="qcurve" smooth="yes"/>
      <point x="700.3548387096776" y="559.0"/>
      <point x="874.3870967741937" y="786.0"/>
      <point x="995.9516129032259" y="786.0" type="qcurve" smooth="yes"/>
      <point x="1130.7983870967741" y="786.0"/>
      <point x="1294.3951612903227" y="576.0"/>
      <point x="1294.3951612903227" y="402.0" type="qcurve" smooth="yes"/>
      <point x="1294.3951612903227" y="228.0"/>
      <point x="1133.6451612903227" y="-13.0"/>
      <point x="999.0806451612902" y="-13.0" type="qcurve" smooth="yes"/>
      <point x="865.233870967742" y="-13.0"/>
      <point x="700.3548387096776" y="233.0"/>
    </contour>
    <contour>
      <point x="824.3548387096776" y="411.0" type="qcurve" smooth="yes"/>
      <point x="825.3548387096776" y="250.0"/>
      <point x="909.1048387096776" y="6.0"/>
      <point x="996.233870967742" y="6.0" type="qcurve" smooth="yes"/>
      <point x="1089.1854838709678" y="6.0"/>
      <point x="1168.3951612903227" y="223.0"/>
      <point x="1168.3951612903227" y="403.0" type="qcurve" smooth="yes"/>
      <point x="1168.3951612903227" y="583.0"/>
      <point x="1084.2096774193549" y="768.0"/>
      <point x="996.7983870967741" y="768.0" type="qcurve" smooth="yes"/>
      <point x="904.5645161290322" y="768.0"/>
      <point x="823.3548387096776" y="572.0"/>
    </contour>
  </outline>
</glyph>
<glyph name="ampersand" format="2">
  <advance width="1224"/>
  <unicode hex="0026"/>
  <outline>
    <contour>
      <point x="508.45161290322585" y="-34.0" type="qcurve" smooth="yes"/>
      <point x="268.2258064516129" y="-34.0"/>
      <point x="1.975806451612904" y="203.0"/>
      <point x="-7.0" y="390.0" type="qcurve" smooth="yes"/>
      <point x="-13.41129032258064" y="640.1612903225806"/>
      <point x="206.25806451612902" y="847.7016129032259"/>
      <point x="297.63709677419354" y="850.733870967742" type="qcurve"/>
      <point x="518.9193548387096" y="965.3306451612904"/>
      <point x="661.3870967741935" y="1120.0"/>
      <point x="661.3870967741935" y="1221.0" type="qcurve" smooth="yes"/>
      <point x="661.3870967741935" y="1341.0"/>
      <point x="546.0" y="1525.0"/>
      <point x="434.0" y="1525.0" type="qcurve" smooth="yes"/>
      <point x="339.0" y="1525.0"/>
      <point x="228.80645161290323" y="1348.0"/>
      <point x="228.80645161290323" y="1242.0" type="qcurve" smooth="yes"/>
      <point x="228.80645161290323" y="1157.0"/>
      <point x="340.0" y="959.0"/>
      <point x="432.0" y="850.0" type="qcurve"/>
      <point x="973.266129032258" y="195.0" type="line" smooth="yes"/>
      <point x="1005.6532258064517" y="152.38709677419354"/>
      <point x="1060.2016129032259" y="81.0"/>
      <point x="1103.2016129032259" y="81.0" type="qcurve" smooth="yes"/>
      <point x="1154.2016129032259" y="81.0"/>
      <point x="1210.2016129032259" y="146.0"/>
      <point x="1229.2016129032259" y="204.0" type="qcurve"/>
      <point x="1247.2016129032259" y="197.0" type="line"/>
      <point x="1216.2016129032259" y="94.0"/>
      <point x="1129.2016129032259" y="-25.0"/>
      <point x="1058.2016129032259" y="-24.0" type="qcurve" smooth="yes"/>
      <point x="1010.2016129032259" y="-23.0"/>
      <point x="851.3225806451612" y="160.49193548387098"/>
      <point x="837.266129032258" y="168.0" type="qcurve" smooth="yes"/>
      <point x="287.0" y="832.0" type="line"/>
      <point x="232.0" y="902.0"/>
      <point x="138.0" y="1091.0"/>
      <point x="136.0" y="1222.0" type="qcurve" smooth="yes"/>
      <point x="133.0" y="1370.0"/>
      <point x="333.0" y="1559.0"/>
      <point x="429.0" y="1559.0" type="qcurve" smooth="yes"/>
      <point x="533.0" y="1559.0"/>
      <point x="703.3870967741935" y="1369.0"/>
      <point x="703.3870967741935" y="1234.0" type="qcurve" smooth="yes"/>
      <point x="703.3870967741935" y="1102.0"/>
      <point x="526.5403225806451" y="914.3306451612904"/>
      <point x="339.75" y="810.3790322580645" type="qcurve"/>
      <point x="218.14516129032256" y="783.1290322580645"/>
      <point x="113.58870967741936" y="565.7741935483871"/>
      <point x="120.0" y="419.0" type="qcurve" smooth="yes"/>
      <point x="127.69354838709677" y="291.0"/>
      <point x="322.2258064516129" y="52.0"/>
      <point x="535.4516129032259" y="52.0" type="qcurve" smooth="yes"/>
      <point x="788.3870967741937" y="52.0"/>
      <point x="1019.9032258064517" y="446.0"/>
      <point x="923.9032258064517" y="783.0" type="qcurve"/>
      <point x="974.9032258064517" y="795.0" type="line"/>
      <point x="1053.9032258064517" y="429.0"/>
      <point x="778.3870967741937" y="-34.0"/>
    </contour>
    <contour>
      <point x="652.0" y="767.0" type="line"/>
      <point x="667.0" y="814.0"/>
      <point x="764.9032258064517" y="887.0"/>
      <point x="803.9032258064517" y="887.0" type="qcurve" smooth="yes"/>
      <point x="822.9032258064517" y="887.0"/>
      <point x="1143.9032258064517" y="791.0"/>
      <point x="1172.9032258064517" y="791.0" type="qcurve" smooth="yes"/>
      <point x="1200.9032258064517" y="791.0"/>
      <point x="1246.9032258064517" y="808.0"/>
      <point x="1259.9032258064517" y="832.0" type="qcurve"/>
      <point x="1273.9032258064517" y="818.0" type="line"/>
      <point x="1267.9032258064517" y="760.0"/>
      <point x="1186.9032258064517" y="673.0"/>
      <point x="1146.9032258064517" y="673.0" type="qcurve" smooth="yes"/>
      <point x="1103.9032258064517" y="673.0"/>
      <point x="781.9032258064517" y="766.0"/>
      <point x="761.9032258064517" y="764.0" type="qcurve" smooth="yes"/>
      <point x="740.9032258064517" y="766.0"/>
      <point x="687.9032258064516" y="755.0"/>
      <point x="675.9032258064516" y="729.0" type="qcurve"/>
    </contour>
  </outline>
</glyph>
<glyph name="one" format="2">
  <advance width="545"/>
  <unicode hex="0031"/>
  <outline>
    <contour>
      <point x="55.0" y="0.0" type="line"/>
      <point x="55.0" y="19.0" type="line"/>
      <point x="223.0" y="54.0" type="line"/>
      <point x="223.0" y="754.0" type="line"/>
      <point x="218.0" y="1395.0" type="line"/>
      <point x="53.0" y="1413.0" type="line"/>
      <point x="53.0" y="1439.0" type="line"/>
      <point x="355.0" y="1521.0" type="line"/>
      <point x="376.0" y="1502.0" type="line"/>
      <point x="367.0" y="753.0" type="line"/>
      <point x="367.0" y="54.0" type="line"/>
      <point x="524.0" y="19.0" type="line"/>
      <point x="524.0" y="0.0" type="line"/>
    </contour>
  </outline>
</glyph>
<glyph name="two" format="2">
  <advance width="662"/>
  <unicode hex="0032"/>
  <outline>
    <contour>
      <point x="36.0" y="0.0" type="line"/>
      <point x="36.0" y="132.0" type="line"/>
      <point x="43.0" y="260.0"/>
      <point x="123.0" y="487.0"/>
      <point x="226.0" y="625.0" type="qcurve" smooth="yes"/>
      <point x="304.0" y="736.0"/>
      <point x="378.0" y="972.0"/>
      <point x="378.0" y="1153.0" type="qcurve" smooth="yes"/>
      <point x="378.0" y="1337.0"/>
      <point x="299.0" y="1469.0"/>
      <point x="211.0" y="1469.0" type="qcurve" smooth="yes"/>
      <point x="178.0" y="1469.0"/>
      <point x="112.0" y="1381.0"/>
      <point x="124.0" y="1313.0" type="qcurve"/>
      <point x="73.0" y="1337.0" type="line"/>
      <point x="92.0" y="1420.0"/>
      <point x="214.0" y="1520.0"/>
      <point x="308.0" y="1520.0" type="qcurve" smooth="yes"/>
      <point x="409.0" y="1520.0"/>
      <point x="552.0" y="1345.0"/>
      <point x="552.0" y="1173.0" type="qcurve" smooth="yes"/>
      <point x="552.0" y="998.0"/>
      <point x="352.0" y="711.0"/>
      <point x="249.0" y="588.0" type="qcurve" smooth="yes"/>
      <point x="144.0" y="458.0"/>
      <point x="91.0" y="280.0"/>
      <point x="80.0" y="175.0" type="qcurve"/>
      <point x="86.0" y="166.0" type="line"/>
      <point x="589.0" y="166.0" type="line"/>
      <point x="589.0" y="0.0" type="line"/>
    </contour>
  </outline>
</glyph>
<glyph name="three" format="2">
  <advance width="719"/>
  <unicode hex="0033"/>
  <outline>
    <contour>
      <point x="-3.0" y="194.0" type="qcurve"/>
      <point x="37.0" y="217.0" type="line"/>
      <point x="44.0" y="146.0"/>
      <point x="189.0" y="28.0"/>
      <point x="270.0" y="28.0" type="qcurve" smooth="yes"/>
      <point x="395.0" y="28.0"/>
      <point x="506.0" y="253.0"/>
      <point x="506.0" y="444.0" type="qcurve" smooth="yes"/>
      <point x="506.0" y="623.0"/>
      <point x="391.0" y="813.0"/>
      <point x="248.0" y="813.0" type="qcurve" smooth="yes"/>
      <point x="202.0" y="813.0" type="line"/>
      <point x="200.0" y="850.0" type="line"/>
      <point x="230.0" y="850.0" type="line" smooth="yes"/>
      <point x="335.0" y="850.0"/>
      <point x="447.0" y="1048.0"/>
      <point x="447.0" y="1191.0" type="qcurve" smooth="yes"/>
      <point x="447.0" y="1328.0"/>
      <point x="358.0" y="1455.0"/>
      <point x="269.0" y="1455.0" type="qcurve" smooth="yes"/>
      <point x="190.0" y="1455.0"/>
      <point x="88.0" y="1354.0"/>
      <point x="85.0" y="1295.0" type="qcurve"/>
      <point x="40.0" y="1305.0" type="line"/>
      <point x="61.0" y="1395.0"/>
      <point x="231.0" y="1520.0"/>
      <point x="316.0" y="1520.0" type="qcurve" smooth="yes"/>
      <point x="428.0" y="1520.0"/>
      <point x="600.0" y="1376.0"/>
      <point x="600.0" y="1229.0" type="qcurve" smooth="yes"/>
      <point x="600.0" y="1087.0"/>
      <point x="472.0" y="890.0"/>
      <point x="345.0" y="851.0" type="qcurve"/>
      <point x="345.0" y="844.0" type="line"/>
      <point x="485.0" y="824.0"/>
      <point x="666.0" y="625.0"/>
      <point x="666.0" y="440.0" type="qcurve" smooth="yes"/>
      <point x="666.0" y="248.0"/>
      <point x="467.0" y="-25.0"/>
      <point x="312.0" y="-25.0" type="qcurve" smooth="yes"/>
      <point x="173.0" y="-25.0"/>
      <point x="15.0" y="118.0"/>
    </contour>
  </outline>
</glyph>
<glyph name="four" format="2">
  <advance width="623"/>
  <unicode hex="0034"/>
  <outline>
    <contour>
      <point x="-23.0" y="517.0" type="line"/>
      <point x="418.0" y="1504.0" type="line"/>
      <point x="496.0" y="1474.0" type="line"/>
      <point x="509.0" y="1449.0" type="line"/>
      <point x="504.0" y="502.0" type="line"/>
      <point x="504.0" y="54.0" type="line"/>
      <point x="612.0" y="19.0" type="line"/>
      <point x="612.0" y="0.0" type="line"/>
      <point x="228.0" y="0.0" type="line"/>
      <point x="228.0" y="19.0" type="line"/>
      <point x="354.0" y="54.0" type="line"/>
      <point x="352.0" y="505.0" type="line"/>
      <point x="358.0" y="1334.0" type="line"/>
      <point x="20.0" y="540.0" type="line"/>
      <point x="22.0" y="533.0" type="line"/>
      <point x="648.0" y="526.0" type="line"/>
      <point x="648.0" y="487.0" type="line"/>
      <point x="-16.0" y="477.0" type="line"/>
    </contour>
  </outline>
</glyph>
<glyph name="seven" format="2">
  <advance width="675"/>
  <unicode hex="0037"/>
  <outline>
    <contour>
      <point x="62.0" y="1183.0" type="line"/>
      <point x="78.0" y="1500.0" type="line"/>
      <point x="618.0" y="1500.0" type="line"/>
      <point x="618.0" y="1430.0" type="line"/>
      <point x="408.0" y="681.0" type="line"/>
      <point x="187.0" y="-10.0" type="line"/>
      <point x="150.0" y="-10.0" type="line"/>
      <point x="150.0" y="22.0" type="line"/>
      <point x="387.0" y="686.0" type="line"/>
      <point x="547.0" y="1324.0" type="line"/>
      <point x="550.0" y="1335.0" type="line"/>
      <point x="143.0" y="1335.0" type="line"/>
      <point x="82.0" y="1183.0" type="line"/>
    </contour>
  </outline>
</glyph>
<glyph name="nine" format="2">
  <advance width="669"/>
  <unicode hex="0039"/>
  <outline>
    <contour>
      <point x="34.0" y="1086.0" type="qcurve" smooth="yes"/>
      <point x="34.0" y="1311.0"/>
      <point x="206.0" y="1522.0"/>
      <point x="326.0" y="1522.0" type="qcurve" smooth="yes"/>
      <point x="447.0" y="1522.0"/>
      <point x="625.0" y="1194.0"/>
      <point x="625.0" y="926.0" type="qcurve" smooth="yes"/>
      <point x="625.0" y="534.0"/>
      <point x="368.0" y="46.0"/>
      <point x="180.0" y="-46.0" type="qcurve"/>
      <point x="180.0" y="-13.0" type="line"/>
      <point x="330.0" y="71.0"/>
      <point x="469.0" y="485.0"/>
      <point x="467.0" y="858.0" type="qcurve" smooth="yes"/>
      <point x="466.0" y="1213.0"/>
      <point x="403.0" y="1494.0"/>
      <point x="312.0" y="1494.0" type="qcurve" smooth="yes"/>
      <point x="286.0" y="1494.0"/>
      <point x="198.0" y="1343.0"/>
      <point x="198.0" y="1114.0" type="qcurve" smooth="yes"/>
      <point x="198.0" y="901.0"/>
      <point x="266.0" y="744.0"/>
      <point x="276.0" y="744.0" type="qcurve" smooth="yes"/>
      <point x="339.0" y="744.0"/>
      <point x="394.0" y="783.0"/>
      <point x="411.0" y="813.0" type="qcurve"/>
      <point x="418.0" y="783.0" type="line"/>
      <point x="400.0" y="749.0"/>
      <point x="317.0" y="699.0"/>
      <point x="266.0" y="699.0" type="qcurve" smooth="yes"/>
      <point x="182.0" y="699.0"/>
      <point x="34.0" y="912.0"/>
    </contour>
  </outline>
</glyph>
<glyph name="question" format="2">
  <advance width="727"/>
  <unicode hex="003F"/>
  <outline>
    <contour>
      <point x="132.29032258064515" y="71.0" type="qcurve" smooth="yes"/>
      <point x="132.29032258064515" y="107.0"/>
      <point x="184.29032258064515" y="161.0"/>
      <point x="224.29032258064518" y="161.0" type="qcurve" smooth="yes"/>
      <point x="265.2903225806452" y="161.0"/>
      <point x="316.2903225806452" y="107.0"/>
      <point x="316.2903225806452" y="71.0" type="qcurve" smooth="yes"/>
      <point x="316.2903225806452" y="33.0"/>
      <point x="265.2903225806452" y="-22.0"/>
      <point x="224.29032258064518" y="-22.0" type="qcurve" smooth="yes"/>
      <point x="184.29032258064515" y="-22.0"/>
      <point x="132.29032258064515" y="33.0"/>
    </contour>
    <contour>
      <point x="9.0" y="1269.0" type="qcurve" smooth="yes"/>
      <point x="9.0" y="1365.0"/>
      <point x="169.0" y="1533.0"/>
      <point x="315.0" y="1533.0" type="qcurve" smooth="yes"/>
      <point x="445.0" y="1533.0"/>
      <point x="646.0" y="1342.0"/>
      <point x="646.0" y="1169.0" type="qcurve" smooth="yes"/>
      <point x="646.0" y="1076.0"/>
      <point x="551.0" y="855.0"/>
      <point x="416.0" y="768.0" type="qcurve" smooth="yes"/>
      <point x="308.0" y="696.0"/>
      <point x="216.64516129032256" y="575.6129032258065"/>
      <point x="219.18548387096774" y="394.71774193548384" type="qcurve" smooth="yes"/>
      <point x="222.29032258064518" y="352.0" type="line"/>
      <point x="200.29032258064518" y="352.0" type="line"/>
      <point x="193.18548387096774" y="521.0" type="line" smooth="yes"/>
      <point x="190.23387096774195" y="611.3870967741935"/>
      <point x="268.0" y="749.0"/>
      <point x="350.0" y="837.0" type="qcurve" smooth="yes"/>
      <point x="407.0" y="902.0"/>
      <point x="472.0" y="1119.0"/>
      <point x="472.0" y="1224.0" type="qcurve" smooth="yes"/>
      <point x="472.0" y="1366.0"/>
      <point x="370.26612903225805" y="1472.0"/>
      <point x="295.56451612903226" y="1472.0" type="qcurve" smooth="yes"/>
      <point x="192.70967741935485" y="1472.0"/>
      <point x="51.0" y="1366.0"/>
      <point x="51.0" y="1293.0" type="qcurve" smooth="yes"/>
      <point x="51.0" y="1287.0"/>
      <point x="128.0" y="1225.0"/>
      <point x="128.0" y="1190.0" type="qcurve" smooth="yes"/>
      <point x="127.0" y="1156.0"/>
      <point x="98.0" y="1109.0"/>
      <point x="71.0" y="1109.0" type="qcurve" smooth="yes"/>
      <point x="55.0" y="1109.0"/>
      <point x="9.0" y="1185.0"/>
    </contour>
  </outline>
</glyph>
<glyph name="at" format="2">
  <advance width="1126"/>
  <unicode hex="0040"/>
  <outline>
    <contour>
      <point x="36.0" y="730.0" type="qcurve" smooth="yes"/>
      <point x="36.0" y="1084.0"/>
      <point x="369.63709677419354" y="1516.0"/>
      <point x="575.6935483870968" y="1516.0" type="qcurve" smooth="yes"/>
      <point x="786.5241935483871" y="1516.0"/>
      <point x="1066.9193548387098" y="1150.0"/>
      <point x="1066.9193548387098" y="825.0" type="qcurve" smooth="yes"/>
      <point x="1070.8709677419356" y="588.7177419354839"/>
      <point x="878.758064516129" y="352.71774193548384"/>
      <point x="780.8064516129032" y="353.0" type="qcurve" smooth="yes"/>
      <point x="717.8064516129032" y="353.0"/>
      <point x="634.0" y="424.0"/>
      <point x="622.0" y="464.0" type="qcurve"/>
      <point x="617.0" y="444.0"/>
      <point x="540.1209677419355" y="352.0"/>
      <point x="489.9354838709678" y="352.0" type="qcurve" smooth="yes"/>
      <point x="382.9354838709678" y="352.0"/>
      <point x="300.4677419354839" y="472.0"/>
      <point x="300.4677419354839" y="578.0" type="qcurve" smooth="yes"/>
      <point x="300.4677419354839" y="684.0"/>
      <point x="477.1854838709678" y="826.0806451612904"/>
      <point x="669.8064516129032" y="888.0" type="qcurve"/>
      <point x="667.8064516129032" y="866.0" type="line"/>
      <point x="537.6209677419355" y="823.6693548387096"/>
      <point x="419.4677419354839" y="680.0"/>
      <point x="419.4677419354839" y="570.0" type="qcurve" smooth="yes"/>
      <point x="419.4677419354839" y="479.0"/>
      <point x="447.13709677419354" y="397.0"/>
      <point x="501.6290322580645" y="397.0" type="qcurve" smooth="yes"/>
      <point x="547.8387096774194" y="397.0"/>
      <point x="616.008064516129" y="487.18548387096774"/>
      <point x="624.8064516129032" y="568.2903225806451" type="qcurve"/>
      <point x="627.8064516129032" y="966.0" type="line" smooth="yes"/>
      <point x="627.8064516129032" y="1060.0"/>
      <point x="576.008064516129" y="1143.0"/>
      <point x="522.6935483870968" y="1143.0" type="qcurve" smooth="yes"/>
      <point x="466.4032258064516" y="1143.0"/>
      <point x="379.4677419354839" y="1101.0"/>
      <point x="388.4677419354839" y="1049.0" type="qcurve"/>
      <point x="387.4677419354839" y="1050.0"/>
      <point x="480.4677419354839" y="976.0"/>
      <point x="480.4677419354839" y="955.0" type="qcurve" smooth="yes"/>
      <point x="478.4677419354839" y="931.0"/>
      <point x="449.4677419354839" y="890.0"/>
      <point x="414.4677419354839" y="890.0" type="qcurve" smooth="yes"/>
      <point x="384.4677419354839" y="890.0"/>
      <point x="335.4677419354839" y="951.0"/>
      <point x="336.4677419354839" y="1003.0" type="qcurve" smooth="yes"/>
      <point x="338.4677419354839" y="1078.0"/>
      <point x="435.8064516129032" y="1181.0"/>
      <point x="557.8709677419355" y="1181.0" type="qcurve" smooth="yes"/>
      <point x="642.8790322580645" y="1181.0"/>
      <point x="749.0" y="1043.0"/>
      <point x="752.0" y="875.0" type="qcurve" smooth="yes"/>
      <point x="757.0" y="467.0" type="line" smooth="yes"/>
      <point x="758.0" y="436.0"/>
      <point x="804.0" y="430.0"/>
      <point x="858.0" y="430.0" type="qcurve" smooth="yes"/>
      <point x="872.0" y="430.0"/>
      <point x="977.9193548387098" y="591.0"/>
      <point x="977.9193548387098" y="809.0" type="qcurve" smooth="yes"/>
      <point x="977.9193548387098" y="1108.0"/>
      <point x="748.6209677419356" y="1492.0"/>
      <point x="566.6935483870968" y="1492.0" type="qcurve" smooth="yes"/>
      <point x="370.3064516129032" y="1492.0"/>
      <point x="128.0" y="1068.0"/>
      <point x="128.0" y="760.0" type="qcurve" smooth="yes"/>
      <point x="128.0" y="395.0"/>
      <point x="377.7903225806451" y="4.0"/>
      <point x="563.6935483870968" y="4.0" type="qcurve" smooth="yes"/>
      <point x="643.6935483870968" y="4.0"/>
      <point x="796.1612903225807" y="82.0"/>
      <point x="838.1612903225807" y="145.0" type="qcurve"/>
      <point x="840.1612903225807" y="134.0" type="line"/>
      <point x="798.5967741935483" y="64.0"/>
      <point x="639.6935483870968" y="-26.0"/>
      <point x="562.6935483870968" y="-26.0" type="qcurve" smooth="yes"/>
      <point x="363.07258064516134" y="-26.0"/>
      <point x="36.0" y="365.0"/>
    </contour>
  </outline>
</glyph>
<glyph name="A" format="2">
  <advance width="916"/>
  <unicode hex="0041"/>
  <outline>
    <contour>
      <point x="-12.0" y="0.0" type="line"/>
      <point x="-12.0" y="21.0" type="line"/>
      <point x="93.0" y="56.0" type="line"/>
      <point x="223.0" y="574.0" type="line"/>
      <point x="413.0" y="1506.0" type="line"/>
      <point x="513.0" y="1506.0" type="line"/>
      <point x="703.0" y="591.0" type="line"/>
      <point x="825.0" y="55.0" type="line"/>
      <point x="911.0" y="21.0" type="line"/>
      <point x="911.0" y="0.0" type="line"/>
      <point x="582.0" y="0.0" type="line"/>
      <point x="582.0" y="21.0" type="line"/>
      <point x="677.0" y="55.0" type="line"/>
      <point x="555.0" y="571.0" type="line"/>
      <point x="410.0" y="1319.0" type="line"/>
      <point x="260.0" y="580.0" type="line"/>
      <point x="120.0" y="56.0" type="line"/>
      <point x="272.0" y="21.0" type="line"/>
      <point x="272.0" y="0.0" type="line"/>
    </contour>
    <contour>
      <point x="428.2258064516129" y="589.0" type="line"/>
      <point x="620.2741935483871" y="598.0" type="line"/>
      <point x="619.2741935483871" y="562.0" type="line"/>
      <point x="428.2258064516129" y="562.0" type="line"/>
    </contour>
    <contour>
      <point x="247.0" y="562.0" type="line"/>
      <point x="246.0" y="597.0" type="line"/>
      <point x="428.2258064516129" y="589.0" type="line"/>
      <point x="428.2258064516129" y="562.0" type="line"/>
    </contour>
  </outline>
</glyph>
<glyph name="B" format="2">
  <advance width="870"/>
  <unicode hex="0042"/>
  <outline>
    <contour>
      <point x="15.0" y="0.0" type="line"/>
      <point x="15.0" y="21.0" type="line"/>
      <point x="130.0" y="56.0" type="line"/>
      <point x="132.0" y="754.0" type="line"/>
      <point x="130.0" y="1443.0" type="line"/>
      <point x="15.0" y="1477.0" type="line"/>
      <point x="15.0" y="1500.0" type="line"/>
      <point x="411.11290322580646" y="1500.0" type="line" smooth="yes"/>
      <point x="584.4032258064516" y="1500.0"/>
      <point x="741.4112903225806" y="1315.0"/>
      <point x="741.4112903225806" y="1169.0" type="qcurve" smooth="yes"/>
      <point x="741.4112903225806" y="1010.0"/>
      <point x="626.4596774193549" y="859.4354838709677"/>
      <point x="562.3548387096774" y="838.4354838709677" type="qcurve"/>
      <point x="562.3548387096774" y="831.4354838709677" type="line"/>
      <point x="665.9758064516129" y="805.1532258064516"/>
      <point x="800.2096774193549" y="613.0"/>
      <point x="800.2096774193549" y="446.2096774193548" type="qcurve" smooth="yes"/>
      <point x="800.2096774193549" y="250.0"/>
      <point x="630.3790322580645" y="0.0"/>
      <point x="481.9596774193549" y="0.0" type="qcurve" smooth="yes"/>
    </contour>
    <contour>
      <point x="286.0" y="49.0" type="line"/>
      <point x="309.0" y="28.0" type="line"/>
      <point x="448.2096774193549" y="28.0" type="line" smooth="yes"/>
      <point x="541.2096774193549" y="28.0"/>
      <point x="634.2096774193549" y="224.0"/>
      <point x="634.2096774193549" y="436.0" type="qcurve" smooth="yes"/>
      <point x="634.2096774193549" y="617.0"/>
      <point x="524.1451612903226" y="804.0"/>
      <point x="424.5241935483871" y="804.0" type="qcurve" smooth="yes"/>
      <point x="282.0" y="804.0" type="line"/>
      <point x="284.0" y="791.0" type="line"/>
    </contour>
    <contour>
      <point x="285.0" y="851.0" type="line"/>
      <point x="282.0" y="832.0" type="line"/>
      <point x="389.2903225806451" y="832.0" type="line" smooth="yes"/>
      <point x="486.9112903225806" y="832.0"/>
      <point x="586.2096774193549" y="1020.0"/>
      <point x="586.2096774193549" y="1180.0" type="qcurve" smooth="yes"/>
      <point x="586.2096774193549" y="1337.0"/>
      <point x="495.2096774193549" y="1469.0"/>
      <point x="396.2096774193549" y="1469.0" type="qcurve" smooth="yes"/>
      <point x="306.0" y="1469.0" type="line"/>
      <point x="287.0" y="1453.0" type="line"/>
    </contour>
  </outline>
</glyph>
<glyph name="C" format="2">
  <advance width="769"/>
  <unicode hex="0043"/>
  <outline>
    <contour>
      <point x="48.0" y="727.0" type="qcurve" smooth="yes"/>
      <point x="48.0" y="1104.3870967741937"/>
      <point x="308.0" y="1512.0"/>
      <point x="439.39516129032256" y="1512.0" type="qcurve" smooth="yes"/>
      <point x="528.0" y="1512.0"/>
      <point x="652.016129032258" y="1427.3064516129032"/>
      <point x="692.1451612903227" y="1374.0" type="qcurve"/>
      <point x="715.1451612903227" y="1488.0" type="line"/>
      <point x="739.1451612903227" y="1488.0" type="line"/>
      <point x="739.1451612903227" y="1066.0" type="line"/>
      <point x="715.1451612903227" y="1066.0" type="line"/>
      <point x="670.1451612903227" y="1258.0" type="line" smooth="yes"/>
      <point x="640.1451612903227" y="1365.0"/>
      <point x="520.0" y="1478.0"/>
      <point x="433.3387096774194" y="1478.0" type="qcurve" smooth="yes"/>
      <point x="323.0" y="1478.0"/>
      <point x="215.0" y="1086.0"/>
      <point x="214.0" y="732.0" type="qcurve" smooth="yes"/>
      <point x="213.0" y="375.0"/>
      <point x="389.82258064516134" y="29.0"/>
      <point x="512.2177419354839" y="29.0" type="qcurve" smooth="yes"/>
      <point x="597.9193548387096" y="29.0"/>
      <point x="719.4516129032259" y="142.41129032258064"/>
      <point x="743.1451612903227" y="232.0" type="qcurve"/>
      <point x="766.1451612903227" y="235.0" type="line"/>
      <point x="765.2741935483871" y="145.41129032258064"/>
      <point x="600.7177419354839" y="-30.0"/>
      <point x="434.5967741935484" y="-30.0" type="qcurve" smooth="yes"/>
      <point x="284.5403225806452" y="-30.0"/>
      <point x="48.0" y="364.3790322580645"/>
    </contour>
  </outline>
</glyph>
<glyph name="D" format="2">
  <advance width="842"/>
  <unicode hex="0044"/>
  <outline>
    <contour>
      <point x="15.0" y="0.0" type="line"/>
      <point x="15.0" y="20.0" type="line"/>
      <point x="130.0" y="59.0" type="line"/>
      <point x="132.0" y="759.0" type="line"/>
      <point x="130.0" y="1440.0" type="line"/>
      <point x="15.0" y="1477.0" type="line"/>
      <point x="15.0" y="1500.0" type="line"/>
      <point x="444.64516129032256" y="1500.0" type="line" smooth="yes"/>
      <point x="595.3145161290323" y="1500.0"/>
      <point x="791.6774193548388" y="1152.0806451612902"/>
      <point x="791.6774193548388" y="777.0" type="qcurve" smooth="yes"/>
      <point x="791.6774193548388" y="409.38709677419354"/>
      <point x="581.2016129032259" y="0.0"/>
      <point x="436.11290322580646" y="0.0" type="qcurve" smooth="yes"/>
    </contour>
    <contour>
      <point x="285.28225806451616" y="37.0" type="line"/>
      <point x="295.9516129032258" y="33.0"/>
      <point x="365.60483870967744" y="27.0"/>
      <point x="410.1612903225806" y="27.0" type="qcurve" smooth="yes"/>
      <point x="523.9758064516129" y="27.0"/>
      <point x="625.3951612903227" y="403.61290322580646"/>
      <point x="626.6774193548388" y="761.0" type="qcurve" smooth="yes"/>
      <point x="626.9596774193549" y="1107.4435483870968"/>
      <point x="504.0564516129032" y="1476.0"/>
      <point x="405.2096774193549" y="1476.0" type="qcurve" smooth="yes"/>
      <point x="359.4758064516129" y="1476.0"/>
      <point x="296.23387096774195" y="1464.0"/>
      <point x="285.28225806451616" y="1456.0" type="qcurve"/>
      <point x="283.0" y="759.0" type="line"/>
    </contour>
  </outline>
</glyph>
<glyph name="F" format="2">
  <advance width="719"/>
  <unicode hex="0046"/>
  <outline>
    <contour>
      <point x="15.0" y="0.0" type="line"/>
      <point x="15.0" y="21.0" type="line"/>
      <point x="130.0" y="56.0" type="line"/>
      <point x="132.0" y="761.0" type="line"/>
      <point x="130.0" y="1443.0" type="line"/>
      <point x="15.0" y="1477.0" type="line"/>
      <point x="15.0" y="1500.0" type="line"/>
      <point x="699.1612903225806" y="1500.0" type="line"/>
      <point x="699.1612903225806" y="1180.0" type="line"/>
      <point x="675.0" y="1180.0" type="line"/>
      <point x="599.0" y="1470.0" type="line"/>
      <point x="301.0" y="1470.0" type="line"/>
      <point x="283.0" y="1447.0" type="line"/>
      <point x="285.0" y="767.0" type="line"/>
      <point x="287.0" y="55.0" type="line"/>
      <point x="403.0" y="21.0" type="line"/>
      <point x="403.0" y="0.0" type="line"/>
    </contour>
    <contour>
      <point x="229.0" y="768.0" type="line"/>
      <point x="229.0" y="797.0" type="line"/>
      <point x="531.1612903225806" y="802.0" type="line"/>
      <point x="590.0" y="974.0" type="line"/>
      <point x="619.1612903225806" y="974.0" type="line"/>
      <point x="619.1612903225806" y="551.0" type="line"/>
      <point x="593.1612903225806" y="551.0" type="line"/>
      <point x="531.1612903225806" y="763.0" type="line"/>
    </contour>
  </outline>
</glyph>
<glyph name="L" format="2">
  <advance width="768"/>
  <unicode hex="004C"/>
  <outline>
    <contour>
      <point x="15.0" y="0.0" type="line"/>
      <point x="15.0" y="21.0" type="line"/>
      <point x="130.0" y="56.0" type="line"/>
      <point x="132.0" y="754.0" type="line"/>
      <point x="130.0" y="1443.0" type="line"/>
      <point x="15.0" y="1477.0" type="line"/>
      <point x="15.0" y="1500.0" type="line"/>
      <point x="407.0" y="1500.0" type="line"/>
      <point x="407.0" y="1477.0" type="line"/>
      <point x="287.0" y="1443.0" type="line"/>
      <point x="285.0" y="754.0" type="line"/>
      <point x="287.0" y="49.0" type="line"/>
      <point x="340.0" y="28.0" type="line"/>
      <point x="570.5645161290323" y="28.0" type="line"/>
      <point x="715.5645161290322" y="363.0" type="line"/>
      <point x="746.5645161290322" y="363.0" type="line"/>
      <point x="715.5645161290322" y="0.0" type="line"/>
    </contour>
  </outline>
</glyph>
<glyph name="N" format="2">
  <advance width="886"/>
  <unicode hex="004E"/>
  <outline>
    <contour>
      <point x="15.0" y="0.0" type="line"/>
      <point x="15.0" y="21.0" type="line"/>
      <point x="135.0" y="55.0" type="line"/>
      <point x="138.0" y="753.0" type="line"/>
      <point x="137.0" y="1443.0" type="line"/>
      <point x="15.0" y="1477.0" type="line"/>
      <point x="15.0" y="1500.0" type="line"/>
      <point x="271.0" y="1500.0" type="line"/>
      <point x="522.0" y="829.0" type="line"/>
      <point x="729.0" y="262.0" type="line"/>
      <point x="728.0" y="756.0" type="line"/>
      <point x="721.0" y="1443.0" type="line"/>
      <point x="579.0" y="1477.0" type="line"/>
      <point x="579.0" y="1500.0" type="line"/>
      <point x="882.0" y="1500.0" type="line"/>
      <point x="882.0" y="1477.0" type="line"/>
      <point x="757.0" y="1443.0" type="line"/>
      <point x="753.0" y="756.0" type="line"/>
      <point x="754.0" y="-4.0" type="line"/>
      <point x="649.0" y="-4.0" type="line"/>
      <point x="385.0" y="752.0" type="line"/>
      <point x="166.0" y="1332.0" type="line"/>
      <point x="164.0" y="751.0" type="line"/>
      <point x="171.0" y="55.0" type="line"/>
      <point x="310.0" y="21.0" type="line"/>
      <point x="310.0" y="0.0" type="line"/>
    </contour>
  </outline>
</glyph>
<glyph name="O" format="2">
  <advance width="854"/>
  <unicode hex="004F"/>
  <outline>
    <contour>
      <point x="49.0" y="745.0" type="qcurve" smooth="yes"/>
      <point x="49.0" y="1105.0"/>
      <point x="293.0" y="1519.0"/>
      <point x="427.0" y="1519.0" type="qcurve" smooth="yes"/>
      <point x="561.0" y="1519.0"/>
      <point x="805.0" y="1123.0"/>
      <point x="805.0" y="770.0" type="qcurve" smooth="yes"/>
      <point x="805.0" y="388.0"/>
      <point x="565.0" y="-17.0"/>
      <point x="428.70161290322585" y="-17.0" type="qcurve" smooth="yes"/>
      <point x="290.0" y="-17.0"/>
      <point x="49.0" y="378.0"/>
    </contour>
    <contour>
      <point x="214.0" y="757.0" type="qcurve" smooth="yes"/>
      <point x="214.0" y="383.0"/>
      <point x="342.5322580645161" y="13.0"/>
      <point x="436.70161290322585" y="13.0" type="qcurve" smooth="yes"/>
      <point x="520.5645161290323" y="13.0"/>
      <point x="640.8387096774193" y="370.0"/>
      <point x="640.8387096774193" y="756.0" type="qcurve" smooth="yes"/>
      <point x="640.8387096774193" y="1114.0"/>
      <point x="515.8709677419355" y="1488.0"/>
      <point x="419.70161290322585" y="1488.0" type="qcurve" smooth="yes"/>
      <point x="334.55645161290323" y="1488.0"/>
      <point x="214.0" y="1143.0"/>
    </contour>
  </outline>
</glyph>
<glyph name="P" format="2">
  <advance width="802"/>
  <unicode hex="0050"/>
  <outline>
    <contour>
      <point x="15.0" y="0.0" type="line"/>
      <point x="15.0" y="20.0" type="line"/>
      <point x="130.0" y="55.0" type="line"/>
      <point x="132.0" y="754.0" type="line"/>
      <point x="130.0" y="1443.0" type="line"/>
      <point x="15.0" y="1477.0" type="line"/>
      <point x="15.0" y="1500.0" type="line"/>
      <point x="428.1532258064516" y="1500.0" type="line" smooth="yes"/>
      <point x="584.8064516129032" y="1500.0"/>
      <point x="778.0241935483871" y="1293.5645161290322"/>
      <point x="778.0241935483871" y="1085.5645161290322" type="qcurve" smooth="yes"/>
      <point x="778.0241935483871" y="881.5645161290323"/>
      <point x="587.6774193548387" y="630.0"/>
      <point x="393.3790322580645" y="630.0" type="qcurve" smooth="yes"/>
      <point x="362.4032258064516" y="630.0"/>
      <point x="259.0" y="646.0"/>
      <point x="236.0" y="657.0" type="qcurve"/>
      <point x="242.0" y="686.0" type="line"/>
      <point x="275.2016129032258" y="671.5403225806451"/>
      <point x="351.9677419354839" y="659.0"/>
      <point x="401.6612903225806" y="659.0" type="qcurve" smooth="yes"/>
      <point x="510.16935483870964" y="659.0"/>
      <point x="617.0241935483871" y="862.0"/>
      <point x="617.0241935483871" y="1093.0" type="qcurve" smooth="yes"/>
      <point x="617.0241935483871" y="1286.0"/>
      <point x="496.73387096774195" y="1472.0"/>
      <point x="395.008064516129" y="1472.0" type="qcurve" smooth="yes"/>
      <point x="303.0" y="1472.0" type="line"/>
      <point x="285.0" y="1448.0" type="line"/>
      <point x="284.0" y="764.0" type="line"/>
      <point x="286.0" y="55.0" type="line"/>
      <point x="399.0" y="21.0" type="line"/>
      <point x="399.0" y="0.0" type="line"/>
    </contour>
  </outline>
</glyph>
<glyph name="U" format="2">
  <advance width="952"/>
  <unicode hex="0055"/>
  <outline>
    <contour>
      <point x="36.0" y="1477.0" type="line"/>
      <point x="36.0" y="1500.0" type="line"/>
      <point x="392.0" y="1500.0" type="line"/>
      <point x="392.0" y="1477.0" type="line"/>
      <point x="300.0" y="1443.0" type="line"/>
      <point x="297.0" y="794.0" type="line"/>
      <point x="299.0" y="383.491935483871" type="line" smooth="yes"/>
      <point x="301.28225806451616" y="183.49193548387098"/>
      <point x="364.9112903225806" y="30.717741935483872"/>
      <point x="506.51612903225805" y="30.717741935483872" type="qcurve" smooth="yes"/>
      <point x="651.6693548387096" y="30.717741935483872"/>
      <point x="759.5483870967741" y="206.11290322580646"/>
      <point x="762.7016129032259" y="412.11290322580646" type="qcurve" smooth="yes"/>
      <point x="767.5725806451612" y="794.0" type="line"/>
      <point x="758.5725806451612" y="1443.0" type="line"/>
      <point x="623.5725806451613" y="1477.0" type="line"/>
      <point x="623.5725806451613" y="1500.0" type="line"/>
      <point x="901.5725806451612" y="1500.0" type="line"/>
      <point x="901.5725806451612" y="1477.0" type="line"/>
      <point x="785.5725806451612" y="1443.0" type="line"/>
      <point x="785.5725806451612" y="794.0" type="line"/>
      <point x="786.1612903225807" y="414.8790322580645" type="line" smooth="yes"/>
      <point x="785.75" y="180.7016129032258"/>
      <point x="634.9193548387096" y="-16.0"/>
      <point x="483.0564516129032" y="-16.0" type="qcurve" smooth="yes"/>
      <point x="325.3790322580645" y="-16.0"/>
      <point x="141.43548387096774" y="159.76612903225805"/>
      <point x="141.71774193548387" y="406.16129032258067" type="qcurve" smooth="yes"/>
      <point x="143.0" y="794.0" type="line"/>
      <point x="142.0" y="1443.0" type="line"/>
    </contour>
  </outline>
</glyph>
<glyph name="V" format="2">
  <advance width="870"/>
  <unicode hex="0056"/>
  <outline>
    <contour>
      <point x="-9.0" y="1480.0" type="line"/>
      <point x="-9.0" y="1500.0" type="line"/>
      <point x="335.30645161290323" y="1500.0" type="line"/>
      <point x="335.30645161290323" y="1480.0" type="line"/>
      <point x="223.30645161290323" y="1445.0" type="line"/>
      <point x="339.19354838709677" y="849.0725806451613" type="line"/>
      <point x="479.491935483871" y="174.1451612903226" type="line"/>
      <point x="608.0483870967741" y="867.8709677419355" type="line"/>
      <point x="717.5241935483871" y="1445.0" type="line"/>
      <point x="547.5241935483871" y="1480.0" type="line"/>
      <point x="547.5241935483871" y="1500.0" type="line"/>
      <point x="881.6774193548388" y="1500.0" type="line"/>
      <point x="881.6774193548388" y="1480.0" type="line"/>
      <point x="733.6774193548388" y="1447.0" type="line"/>
      <point x="625.3548387096774" y="856.1774193548387" type="line"/>
      <point x="482.3387096774194" y="-6.0" type="line"/>
      <point x="358.3387096774194" y="-6.0" type="line"/>
      <point x="202.83870967741933" y="818.7096774193549" type="line"/>
      <point x="79.0" y="1445.0" type="line"/>
    </contour>
  </outline>
</glyph>
<glyph name="W" format="2">
  <advance width="1200"/>
  <unicode hex="0057"/>
  <outline>
    <contour>
      <point x="-6.0" y="1480.0" type="line"/>
      <point x="-6.0" y="1500.0" type="line"/>
      <point x="306.0" y="1500.0" type="line"/>
      <point x="306.0" y="1480.0" type="line"/>
      <point x="221.0" y="1445.0" type="line"/>
      <point x="342.0" y="795.0" type="line"/>
      <point x="446.04838709677415" y="240.70967741935485" type="line"/>
      <point x="570.1854838709678" y="827.4677419354839" type="line"/>
      <point x="630.983870967742" y="1192.1774193548388" type="line"/>
      <point x="643.983870967742" y="1114.0" type="line"/>
      <point x="584.6209677419355" y="790.9032258064516" type="line"/>
      <point x="431.2258064516129" y="-6.0" type="line"/>
      <point x="325.2258064516129" y="-6.0" type="line"/>
      <point x="196.6532258064516" y="779.8629032258065" type="line"/>
      <point x="79.0" y="1444.0" type="line"/>
    </contour>
    <contour>
      <point x="431.1612903225806" y="1477.0" type="line"/>
      <point x="431.1612903225806" y="1500.0" type="line"/>
      <point x="742.0" y="1500.0" type="line"/>
      <point x="742.0" y="1477.0" type="line"/>
      <point x="650.0" y="1443.0" type="line"/>
      <point x="758.0" y="811.0" type="line"/>
      <point x="849.9193548387098" y="250.70967741935485" type="line"/>
      <point x="945.9032258064517" y="819.9193548387096" type="line"/>
      <point x="1060.1451612903227" y="1440.0" type="line"/>
      <point x="922.1451612903227" y="1479.0" type="line"/>
      <point x="922.1451612903227" y="1500.0" type="line"/>
      <point x="1207.3225806451612" y="1500.0" type="line"/>
      <point x="1207.3225806451612" y="1479.0" type="line"/>
      <point x="1062.3225806451612" y="1444.0" type="line"/>
      <point x="964.9274193548388" y="814.9193548387096" type="line"/>
      <point x="836.0967741935483" y="-6.0" type="line"/>
      <point x="743.0967741935483" y="-6.0" type="line"/>
      <point x="620.0645161290323" y="784.3306451612904" type="line"/>
      <point x="514.1612903225806" y="1442.0" type="line"/>
    </contour>
  </outline>
</glyph>
<glyph name="X" format="2">
  <advance width="872"/>
  <unicode hex="0058"/>
  <outline>
    <contour>
      <point x="-31.0" y="0.0" type="line"/>
      <point x="-33.0" y="22.0" type="line"/>
      <point x="114.0" y="54.0" type="line"/>
      <point x="408.0241935483871" y="806.6048387096774" type="line"/>
      <point x="441.82258064516134" y="817.0725806451613" type="line"/>
      <point x="693.2096774193549" y="1445.0" type="line"/>
      <point x="557.2096774193549" y="1477.0" type="line"/>
      <point x="557.2096774193549" y="1500.0" type="line"/>
      <point x="867.2096774193549" y="1500.0" type="line"/>
      <point x="867.2096774193549" y="1477.0" type="line"/>
      <point x="718.2096774193549" y="1445.0" type="line"/>
      <point x="448.92741935483866" y="783.258064516129" type="line"/>
      <point x="419.258064516129" y="773.9193548387096" type="line"/>
      <point x="141.0" y="53.0" type="line"/>
      <point x="266.0" y="22.0" type="line"/>
      <point x="266.0" y="0.0" type="line"/>
    </contour>
    <contour>
      <point x="-12.0" y="1477.0" type="line"/>
      <point x="-12.0" y="1500.0" type="line"/>
      <point x="322.8225806451613" y="1500.0" type="line"/>
      <point x="322.8225806451613" y="1477.0" type="line"/>
      <point x="257.8225806451613" y="1443.0" type="line"/>
      <point x="464.9758064516129" y="878.483870967742" type="line"/>
      <point x="797.2096774193549" y="56.0" type="line"/>
      <point x="900.2096774193549" y="22.0" type="line"/>
      <point x="900.2096774193549" y="0.0" type="line"/>
      <point x="536.3870967741935" y="0.0" type="line"/>
      <point x="536.3870967741935" y="22.0" type="line"/>
      <point x="633.0" y="56.0" type="line"/>
      <point x="390.0" y="714.0" type="line"/>
      <point x="92.0" y="1443.0" type="line"/>
    </contour>
  </outline>
</glyph>
<glyph name="Y" format="2">
  <advance width="841"/>
  <unicode hex="0059"/>
  <outline>
    <contour>
      <point x="-31.0" y="1477.0" type="line"/>
      <point x="-31.0" y="1500.0" type="line"/>
      <point x="279.8225806451613" y="1500.0" type="line"/>
      <point x="279.8225806451613" y="1477.0" type="line"/>
      <point x="213.0" y="1443.0" type="line"/>
      <point x="365.0" y="1092.0" type="line"/>
      <point x="486.0" y="753.0" type="line"/>
      <point x="600.0" y="1101.0" type="line"/>
      <point x="723.9677419354839" y="1444.0" type="line"/>
      <point x="576.9677419354839" y="1477.0" type="line"/>
      <point x="576.9677419354839" y="1500.0" type="line"/>
      <point x="876.9677419354839" y="1500.0" type="line"/>
      <point x="876.9677419354839" y="1477.0" type="line"/>
      <point x="739.9677419354839" y="1443.0" type="line"/>
      <point x="633.0" y="1101.0" type="line"/>
      <point x="512.983870967742" y="703.0" type="line"/>
      <point x="514.983870967742" y="56.0" type="line"/>
      <point x="635.983870967742" y="23.0" type="line"/>
      <point x="635.983870967742" y="0.0" type="line"/>
      <point x="237.98387096774195" y="0.0" type="line"/>
      <point x="237.98387096774195" y="23.0" type="line"/>
      <point x="356.98387096774195" y="56.0" type="line"/>
      <point x="358.98387096774195" y="672.0" type="line"/>
      <point x="228.0" y="1027.0" type="line"/>
      <point x="50.0" y="1443.0" type="line"/>
    </contour>
  </outline>
</glyph>
<glyph name="a" format="2">
  <advance width="579"/>
  <unicode hex="0061"/>
  <outline>
    <contour>
      <point x="23.0" y="202.0" type="qcurve" smooth="yes"/>
      <point x="23.0" y="332.0"/>
      <point x="192.0" y="505.0"/>
      <point x="399.0" y="565.0" type="qcurve"/>
      <point x="400.0" y="538.0" type="line"/>
      <point x="202.0" y="483.0"/>
      <point x="169.0" y="330.0"/>
      <point x="169.0" y="263.0" type="qcurve" smooth="yes"/>
      <point x="169.0" y="142.0"/>
      <point x="206.0" y="60.0"/>
      <point x="258.0" y="60.0" type="qcurve" smooth="yes"/>
      <point x="296.0" y="60.0"/>
      <point x="324.0" y="118.0"/>
      <point x="332.0" y="187.0" type="qcurve"/>
      <point x="333.0" y="590.0" type="line" smooth="yes"/>
      <point x="334.0" y="768.0"/>
      <point x="265.0" y="906.0"/>
      <point x="212.0" y="906.0" type="qcurve" smooth="yes"/>
      <point x="184.0" y="906.0"/>
      <point x="123.0" y="865.0"/>
      <point x="124.0" y="833.0" type="qcurve"/>
      <point x="159.0" y="816.0"/>
      <point x="220.0" y="757.0"/>
      <point x="219.0" y="702.0" type="qcurve" smooth="yes"/>
      <point x="214.0" y="667.0"/>
      <point x="168.0" y="635.0"/>
      <point x="141.0" y="635.0" type="qcurve" smooth="yes"/>
      <point x="114.0" y="635.0"/>
      <point x="65.0" y="683.0"/>
      <point x="65.0" y="747.0" type="qcurve" smooth="yes"/>
      <point x="65.0" y="837.0"/>
      <point x="178.0" y="937.0"/>
      <point x="257.0" y="937.0" type="qcurve" smooth="yes"/>
      <point x="358.0" y="937.0"/>
      <point x="475.0" y="789.0"/>
      <point x="477.0" y="630.0" type="qcurve" smooth="yes"/>
      <point x="482.0" y="56.0" type="line"/>
      <point x="555.0" y="21.0" type="line"/>
      <point x="555.0" y="0.0" type="line"/>
      <point x="350.0" y="0.0" type="line"/>
      <point x="341.0" y="16.0" type="line"/>
      <point x="336.0" y="115.0" type="line"/>
      <point x="320.0" y="59.0"/>
      <point x="256.0" y="-13.0"/>
      <point x="180.0" y="-13.0" type="qcurve" smooth="yes"/>
      <point x="106.0" y="-13.0"/>
      <point x="23.0" y="81.0"/>
    </contour>
  </outline>
</glyph>
<glyph name="c" format="2">
  <advance width="484"/>
  <unicode hex="0063"/>
  <outline>
    <contour>
      <point x="34.0" y="435.0" type="qcurve" smooth="yes"/>
      <point x="34.0" y="666.0"/>
      <point x="189.0" y="939.0"/>
      <point x="292.0" y="939.0" type="qcurve" smooth="yes"/>
      <point x="349.0" y="939.0"/>
      <point x="410.0" y="892.0"/>
      <point x="423.0" y="860.0" type="qcurve"/>
      <point x="456.0" y="950.0" type="line"/>
      <point x="463.0" y="950.0" type="line"/>
      <point x="468.0" y="627.0" type="line"/>
      <point x="457.0" y="627.0" type="line"/>
      <point x="441.0" y="709.0" type="line" smooth="yes"/>
      <point x="423.0" y="810.0"/>
      <point x="346.0" y="900.0"/>
      <point x="289.0" y="900.0" type="qcurve" smooth="yes"/>
      <point x="238.0" y="900.0"/>
      <point x="185.0" y="680.0"/>
      <point x="185.0" y="450.0" type="qcurve" smooth="yes"/>
      <point x="185.0" y="232.0"/>
      <point x="260.0" y="49.0"/>
      <point x="322.0" y="49.0" type="qcurve" smooth="yes"/>
      <point x="372.0" y="49.0"/>
      <point x="444.0" y="119.0"/>
      <point x="480.0" y="202.0" type="qcurve"/>
      <point x="496.0" y="194.0" type="line"/>
      <point x="476.0" y="107.0"/>
      <point x="380.0" y="-17.0"/>
      <point x="296.0" y="-17.0" type="qcurve" smooth="yes"/>
      <point x="176.0" y="-17.0"/>
      <point x="34.0" y="235.0"/>
    </contour>
  </outline>
</glyph>
<glyph name="e" format="2">
  <advance width="527"/>
  <unicode hex="0065"/>
  <outline>
    <contour>
      <point x="35.0" y="464.0" type="qcurve" smooth="yes"/>
      <point x="35.0" y="704.0"/>
      <point x="197.0" y="939.0"/>
      <point x="296.0" y="939.0" type="qcurve" smooth="yes"/>
      <point x="414.0" y="939.0"/>
      <point x="544.0" y="721.0"/>
      <point x="536.0" y="529.0" type="qcurve"/>
      <point x="537.0" y="504.0" type="line"/>
      <point x="136.0" y="504.0" type="line"/>
      <point x="136.0" y="541.0" type="line"/>
      <point x="393.0" y="541.0" type="line"/>
      <point x="395.0" y="692.0"/>
      <point x="374.0" y="911.0"/>
      <point x="295.0" y="911.0" type="qcurve" smooth="yes"/>
      <point x="248.0" y="911.0"/>
      <point x="188.0" y="720.0"/>
      <point x="188.0" y="471.0" type="qcurve" smooth="yes"/>
      <point x="187.0" y="221.0"/>
      <point x="280.0" y="41.0"/>
      <point x="357.0" y="41.0" type="qcurve" smooth="yes"/>
      <point x="409.0" y="41.0"/>
      <point x="512.0" y="133.0"/>
      <point x="546.0" y="194.0" type="qcurve"/>
      <point x="563.0" y="204.0" type="line"/>
      <point x="532.0" y="119.0"/>
      <point x="395.0" y="-17.0"/>
      <point x="321.0" y="-17.0" type="qcurve" smooth="yes"/>
      <point x="201.0" y="-17.0"/>
      <point x="35.0" y="239.0"/>
    </contour>
  </outline>
</glyph>
<glyph name="g" format="2">
  <advance width="518"/>
  <unicode hex="0067"/>
  <outline>
    <contour>
      <point x="30.0" y="-237.0" type="qcurve" smooth="yes"/>
      <point x="30.0" y="-158.0"/>
      <point x="119.0" y="-32.0"/>
      <point x="166.0" y="3.0" type="qcurve"/>
      <point x="167.0" y="-15.0" type="line"/>
      <point x="124.0" y="-48.0"/>
      <point x="75.0" y="-165.0"/>
      <point x="75.0" y="-241.0" type="qcurve" smooth="yes"/>
      <point x="75.0" y="-335.0"/>
      <point x="186.0" y="-463.0"/>
      <point x="289.0" y="-463.0" type="qcurve" smooth="yes"/>
      <point x="394.0" y="-463.0"/>
      <point x="469.0" y="-322.0"/>
      <point x="469.0" y="-243.0" type="qcurve" smooth="yes"/>
      <point x="469.0" y="-164.0"/>
      <point x="401.0" y="-70.0"/>
      <point x="301.0" y="-52.0" type="qcurve" smooth="yes"/>
      <point x="197.0" y="-35.0"/>
      <point x="36.0" y="44.0"/>
      <point x="36.0" y="119.0" type="qcurve" smooth="yes"/>
      <point x="36.0" y="170.66129032258064"/>
      <point x="117.66129032258064" y="262.63709677419354"/>
      <point x="171.0" y="304.0" type="qcurve"/>
      <point x="201.0" y="284.0" type="line"/>
      <point x="161.48387096774192" y="255.45967741935482"/>
      <point x="107.0" y="201.07258064516128"/>
      <point x="107.0" y="180.0" type="qcurve" smooth="yes"/>
      <point x="107.0" y="139.0"/>
      <point x="208.0" y="112.0"/>
      <point x="317.0" y="91.0" type="qcurve" smooth="yes"/>
      <point x="421.0" y="68.0"/>
      <point x="546.0" y="-43.0"/>
      <point x="546.0" y="-167.0" type="qcurve" smooth="yes"/>
      <point x="546.0" y="-294.0"/>
      <point x="398.0" y="-490.0"/>
      <point x="309.0" y="-490.0" type="qcurve" smooth="yes"/>
      <point x="202.0" y="-490.0"/>
      <point x="30.0" y="-341.0"/>
    </contour>
    <contour>
      <point x="47.0" y="594.0" type="qcurve" smooth="yes"/>
      <point x="47.0" y="744.0"/>
      <point x="170.0" y="939.0"/>
      <point x="276.0" y="939.0" type="qcurve" smooth="yes"/>
      <point x="383.0" y="939.0"/>
      <point x="508.0" y="753.0"/>
      <point x="508.0" y="599.0" type="qcurve" smooth="yes"/>
      <point x="509.0" y="462.0"/>
      <point x="384.0" y="252.0"/>
      <point x="279.0" y="252.0" type="qcurve" smooth="yes"/>
      <point x="172.0" y="252.0"/>
      <point x="47.0" y="445.0"/>
    </contour>
    <contour>
      <point x="192.0" y="611.0" type="qcurve" smooth="yes"/>
      <point x="192.0" y="437.0"/>
      <point x="231.0" y="278.0"/>
      <point x="287.0" y="278.0" type="qcurve" smooth="yes"/>
      <point x="329.0" y="278.0"/>
      <point x="365.0" y="426.0"/>
      <point x="365.0" y="601.0" type="qcurve" smooth="yes"/>
      <point x="365.0" y="771.0"/>
      <point x="321.0" y="911.0"/>
      <point x="269.0" y="911.0" type="qcurve" smooth="yes"/>
      <point x="228.0" y="911.0"/>
      <point x="192.0" y="775.0"/>
    </contour>
    <contour>
      <point x="364.0" y="883.0" type="line"/>
      <point x="356.0" y="906.0" type="line"/>
      <point x="503.0" y="901.0" type="line"/>
      <point x="503.0" y="845.0" type="line"/>
    </contour>
  </outline>
</glyph>
<glyph name="k" format="2">
  <advance width="606"/>
  <unicode hex="006B"/>
  <outline>
    <contour>
      <point x="26.0" y="0.0" type="line"/>
      <point x="26.0" y="21.0" type="line"/>
      <point x="108.0" y="56.0" type="line"/>
      <point x="110.0" y="477.0" type="line"/>
      <point x="108.0" y="1432.0" type="line"/>
      <point x="15.0" y="1476.0" type="line"/>
      <point x="15.0" y="1500.0" type="line"/>
      <point x="207.0" y="1512.0" type="line"/>
      <point x="232.0" y="1511.0" type="line"/>
      <point x="251.0" y="1480.0" type="line"/>
      <point x="250.0" y="506.0" type="line"/>
      <point x="250.0" y="56.0" type="line"/>
      <point x="331.0" y="21.0" type="line"/>
      <point x="331.0" y="0.0" type="line"/>
    </contour>
    <contour>
      <point x="228.0" y="425.0" type="line"/>
      <point x="225.0" y="457.0" type="line"/>
      <point x="527.0" y="867.0" type="line"/>
      <point x="454.0" y="897.0" type="line"/>
      <point x="454.0" y="920.0" type="line"/>
      <point x="629.0" y="920.0" type="line"/>
      <point x="629.0" y="897.0" type="line"/>
      <point x="551.0" y="867.0" type="line"/>
    </contour>
    <contour>
      <point x="280.0" y="527.0" type="line"/>
      <point x="381.0" y="646.0" type="line"/>
      <point x="601.0" y="58.0" type="line"/>
      <point x="660.0" y="21.0" type="line"/>
      <point x="660.0" y="0.0" type="line"/>
      <point x="424.0" y="0.0" type="line"/>
      <point x="424.0" y="16.0" type="line"/>
      <point x="445.0" y="59.0" type="line"/>
    </contour>
  </outline>
</glyph>
<glyph name="m" format="2">
  <advance width="930"/>
  <unicode hex="006D"/>
  <outline>
    <contour>
      <point x="26.0" y="0.0" type="line"/>
      <point x="26.0" y="21.0" type="line"/>
      <point x="101.0" y="56.0" type="line"/>
      <point x="105.0" y="532.0" type="line"/>
      <point x="101.0" y="830.0" type="line"/>
      <point x="26.0" y="865.0" type="line"/>
      <point x="26.0" y="889.0" type="line"/>
      <point x="223.0" y="923.0" type="line"/>
      <point x="242.0" y="912.0" type="line"/>
      <point x="239.0" y="793.0" type="line"/>
      <point x="251.0" y="854.0"/>
      <point x="333.0" y="937.0"/>
      <point x="409.0" y="937.0" type="qcurve" smooth="yes"/>
      <point x="470.0" y="937.0"/>
      <point x="524.0" y="860.0"/>
      <point x="531.0" y="792.0" type="qcurve"/>
      <point x="548.0" y="859.0"/>
      <point x="623.0" y="937.0"/>
      <point x="701.0" y="937.0" type="qcurve" smooth="yes"/>
      <point x="769.0" y="937.0"/>
      <point x="826.0" y="826.0"/>
      <point x="826.0" y="727.0" type="qcurve" smooth="yes"/>
      <point x="826.0" y="664.0"/>
      <point x="824.0" y="479.0"/>
      <point x="824.0" y="502.0" type="qcurve" smooth="yes"/>
      <point x="827.0" y="56.0" type="line"/>
      <point x="907.0" y="21.0" type="line"/>
      <point x="907.0" y="0.0" type="line"/>
      <point x="652.0" y="0.0" type="line"/>
      <point x="652.0" y="21.0" type="line"/>
      <point x="683.0" y="56.0" type="line"/>
      <point x="683.0" y="515.0" type="line"/>
      <point x="683.0" y="705.0" type="line" smooth="yes"/>
      <point x="683.0" y="798.0"/>
      <point x="654.0" y="870.0"/>
      <point x="624.0" y="870.0" type="qcurve" smooth="yes"/>
      <point x="601.0" y="870.0"/>
      <point x="545.0" y="825.0"/>
      <point x="531.0" y="764.0" type="qcurve"/>
      <point x="534.0" y="768.0"/>
      <point x="534.0" y="553.0"/>
      <point x="534.0" y="502.0" type="qcurve" smooth="yes"/>
      <point x="535.0" y="56.0" type="line"/>
      <point x="589.0" y="21.0" type="line"/>
      <point x="589.0" y="0.0" type="line"/>
      <point x="342.0" y="0.0" type="line"/>
      <point x="342.0" y="21.0" type="line"/>
      <point x="393.0" y="56.0" type="line"/>
      <point x="393.0" y="533.0" type="line"/>
      <point x="393.0" y="705.0" type="line" smooth="yes"/>
      <point x="393.0" y="798.0"/>
      <point x="372.0" y="870.0"/>
      <point x="332.0" y="870.0" type="qcurve" smooth="yes"/>
      <point x="305.0" y="870.0"/>
      <point x="254.0" y="822.0"/>
      <point x="244.0" y="764.0" type="qcurve"/>
      <point x="243.0" y="525.0" type="line"/>
      <point x="243.0" y="56.0" type="line"/>
      <point x="292.0" y="21.0" type="line"/>
      <point x="292.0" y="0.0" type="line"/>
    </contour>
  </outline>
</glyph>
<glyph name="p" format="2">
  <advance width="676"/>
  <unicode hex="0070"/>
  <outline>
    <contour>
      <point x="19.0" y="-460.0" type="line"/>
      <point x="19.0" y="-439.0" type="line"/>
      <point x="96.0" y="-404.0" type="line"/>
      <point x="98.0" y="389.0" type="line"/>
      <point x="96.0" y="830.0" type="line"/>
      <point x="25.0" y="865.0" type="line"/>
      <point x="25.0" y="889.0" type="line"/>
      <point x="207.0" y="923.0" type="line"/>
      <point x="223.0" y="912.0" type="line"/>
      <point x="236.0" y="839.0" type="line"/>
      <point x="251.0" y="880.0"/>
      <point x="337.0" y="938.0"/>
      <point x="412.0" y="938.0" type="qcurve" smooth="yes"/>
      <point x="494.0" y="938.0"/>
      <point x="641.0" y="748.0"/>
      <point x="641.0" y="485.0" type="qcurve" smooth="yes"/>
      <point x="641.0" y="237.0"/>
      <point x="483.0" y="0.0"/>
      <point x="381.0" y="0.0" type="qcurve" smooth="yes"/>
      <point x="334.0" y="0.0"/>
      <point x="268.0" y="28.0"/>
      <point x="244.0" y="55.0" type="qcurve"/>
      <point x="246.0" y="-404.0" type="line"/>
      <point x="366.0" y="-439.0" type="line"/>
      <point x="366.0" y="-460.0" type="line"/>
    </contour>
    <contour>
      <point x="244.0" y="114.0" type="line"/>
      <point x="260.0" y="64.0"/>
      <point x="312.0" y="27.0"/>
      <point x="350.0" y="27.0" type="qcurve" smooth="yes"/>
      <point x="414.0" y="27.0"/>
      <point x="489.0" y="195.0"/>
      <point x="489.0" y="479.0" type="qcurve" smooth="yes"/>
      <point x="489.0" y="740.0"/>
      <point x="408.0" y="892.0"/>
      <point x="343.0" y="892.0" type="qcurve" smooth="yes"/>
      <point x="295.0" y="892.0"/>
      <point x="247.0" y="831.0"/>
      <point x="242.0" y="805.0" type="qcurve"/>
      <point x="242.0" y="385.0" type="line"/>
    </contour>
  </outline>
</glyph>
<glyph name="q" format="2">
  <advance width="641"/>
  <unicode hex="0071"/>
  <outline>
    <contour>
      <point x="35.0" y="444.0" type="qcurve" smooth="yes"/>
      <point x="35.0" y="702.0"/>
      <point x="203.0" y="936.0"/>
      <point x="340.0" y="936.0" type="qcurve" smooth="yes"/>
      <point x="391.0" y="936.0"/>
      <point x="428.0" y="884.0"/>
      <point x="445.0" y="838.0" type="qcurve"/>
      <point x="499.0" y="925.0" type="line"/>
      <point x="642.0" y="909.0" type="line"/>
      <point x="642.0" y="881.0" type="line"/>
      <point x="563.0" y="841.0" type="line"/>
      <point x="562.0" y="405.0" type="line"/>
      <point x="561.0" y="-404.0" type="line"/>
      <point x="642.0" y="-439.0" type="line"/>
      <point x="642.0" y="-460.0" type="line"/>
      <point x="342.0" y="-460.0" type="line"/>
      <point x="342.0" y="-439.0" type="line"/>
      <point x="421.0" y="-404.0" type="line"/>
      <point x="425.0" y="61.0" type="line"/>
      <point x="414.0" y="33.0"/>
      <point x="354.0" y="-9.0"/>
      <point x="317.0" y="-9.0" type="qcurve" smooth="yes"/>
      <point x="179.0" y="-9.0"/>
      <point x="35.0" y="212.0"/>
    </contour>
    <contour>
      <point x="185.0" y="458.0" type="qcurve" smooth="yes"/>
      <point x="185.0" y="202.0"/>
      <point x="245.0" y="20.0"/>
      <point x="322.0" y="20.0" type="qcurve" smooth="yes"/>
      <point x="356.0" y="20.0"/>
      <point x="413.0" y="67.0"/>
      <point x="425.0" y="117.0" type="qcurve"/>
      <point x="428.0" y="803.0" type="line"/>
      <point x="413.0" y="870.0"/>
      <point x="358.0" y="909.0"/>
      <point x="333.0" y="909.0" type="qcurve" smooth="yes"/>
      <point x="254.0" y="909.0"/>
      <point x="185.0" y="694.0"/>
    </contour>
  </outline>
</glyph>
<glyph name="s" format="2">
  <advance width="504"/>
  <unicode hex="0073"/>
  <outline>
    <contour>
      <point x="39.0" y="0.0" type="line"/>
      <point x="39.0" y="303.0" type="line"/>
      <point x="57.0" y="303.0" type="line"/>
      <point x="93.0" y="199.0" type="line" smooth="yes"/>
      <point x="127.0" y="98.0"/>
      <point x="190.0" y="10.0"/>
      <point x="255.0" y="9.0" type="qcurve" smooth="yes"/>
      <point x="316.0" y="9.0"/>
      <point x="381.0" y="112.0"/>
      <point x="381.0" y="197.0" type="qcurve" smooth="yes"/>
      <point x="381.0" y="274.0"/>
      <point x="294.0" y="375.0"/>
      <point x="209.0" y="432.0" type="qcurve" smooth="yes"/>
      <point x="123.0" y="492.0"/>
      <point x="45.0" y="607.0"/>
      <point x="45.0" y="703.0" type="qcurve" smooth="yes"/>
      <point x="45.0" y="798.0"/>
      <point x="144.0" y="939.0"/>
      <point x="234.0" y="939.0" type="qcurve" smooth="yes"/>
      <point x="274.0" y="939.0"/>
      <point x="359.0" y="891.0"/>
      <point x="356.0" y="888.0" type="qcurve"/>
      <point x="402.0" y="944.0" type="line"/>
      <point x="421.0" y="944.0" type="line"/>
      <point x="421.0" y="629.0" type="line"/>
      <point x="402.0" y="629.0" type="line"/>
      <point x="387.0" y="686.0" type="line" smooth="yes"/>
      <point x="354.0" y="811.0"/>
      <point x="277.0" y="912.0"/>
      <point x="232.0" y="912.0" type="qcurve" smooth="yes"/>
      <point x="177.0" y="912.0"/>
      <point x="124.0" y="838.0"/>
      <point x="124.0" y="784.0" type="qcurve" smooth="yes"/>
      <point x="124.0" y="717.0"/>
      <point x="216.0" y="607.0"/>
      <point x="283.0" y="562.0" type="qcurve" smooth="yes"/>
      <point x="367.0" y="509.0"/>
      <point x="460.0" y="379.0"/>
      <point x="460.0" y="256.0" type="qcurve" smooth="yes"/>
      <point x="460.0" y="130.0"/>
      <point x="335.0" y="-16.0"/>
      <point x="264.0" y="-16.0" type="qcurve" smooth="yes"/>
      <point x="165.0" y="-16.0"/>
      <point x="90.0" y="45.0"/>
      <point x="88.0" y="53.0" type="qcurve"/>
      <point x="44.0" y="0.0" type="line"/>
    </contour>
  </outline>
</glyph>
<glyph name="t" format="2">
  <advance width="396"/>
  <unicode hex="0074"/>
  <outline>
    <contour>
      <point x="13.0" y="868.0" type="line"/>
      <point x="13.0" y="899.0" type="line"/>
      <point x="131.0" y="915.0"/>
      <point x="223.0" y="1066.0"/>
      <point x="238.0" y="1212.0" type="qcurve"/>
      <point x="256.0" y="1212.0" type="line"/>
      <point x="266.0" y="1155.0" type="line"/>
      <point x="261.0" y="896.0" type="line"/>
      <point x="410.0" y="896.0" type="line"/>
      <point x="410.0" y="867.0" type="line"/>
      <point x="261.0" y="867.0" type="line"/>
      <point x="261.0" y="477.0" type="line"/>
      <point x="268.0" y="181.0" type="line" smooth="yes"/>
      <point x="269.0" y="119.0"/>
      <point x="310.0" y="71.0"/>
      <point x="377.0" y="60.0" type="qcurve" smooth="yes"/>
      <point x="408.0" y="50.0" type="line"/>
      <point x="408.0" y="29.0" type="line"/>
      <point x="242.0" y="-8.0" type="line"/>
      <point x="183.0" y="-10.0"/>
      <point x="120.0" y="69.0"/>
      <point x="120.0" y="145.0" type="qcurve" smooth="yes"/>
      <point x="119.0" y="477.0" type="line"/>
      <point x="118.0" y="862.0" type="line"/>
    </contour>
  </outline>
</glyph>
<glyph name="u" format="2">
  <advance width="640"/>
  <unicode hex="0075"/>
  <outline>
    <contour>
      <point x="24.0" y="865.0" type="line"/>
      <point x="24.0" y="889.0" type="line"/>
      <point x="210.0" y="923.0" type="line"/>
      <point x="234.0" y="923.0" type="line"/>
      <point x="246.0" y="887.0" type="line"/>
      <point x="244.0" y="463.0" type="line"/>
      <point x="245.0" y="262.0" type="line" smooth="yes"/>
      <point x="245.0" y="105.0"/>
      <point x="291.0" y="60.0"/>
      <point x="314.0" y="60.0" type="qcurve" smooth="yes"/>
      <point x="340.0" y="60.0"/>
      <point x="389.0" y="100.0"/>
      <point x="399.0" y="163.0" type="qcurve"/>
      <point x="400.0" y="463.0" type="line"/>
      <point x="399.0" y="835.0" type="line"/>
      <point x="341.0" y="865.0" type="line"/>
      <point x="341.0" y="889.0" type="line"/>
      <point x="506.0" y="923.0" type="line"/>
      <point x="530.0" y="923.0" type="line"/>
      <point x="543.0" y="887.0" type="line"/>
      <point x="540.0" y="463.0" type="line"/>
      <point x="542.0" y="74.0" type="line"/>
      <point x="619.0" y="44.0" type="line"/>
      <point x="619.0" y="28.0" type="line"/>
      <point x="454.0" y="-6.0" type="line"/>
      <point x="419.0" y="21.0" type="line"/>
      <point x="403.0" y="129.0" type="line"/>
      <point x="394.0" y="67.0"/>
      <point x="308.0" y="0.0"/>
      <point x="250.0" y="0.0" type="qcurve" smooth="yes"/>
      <point x="166.0" y="0.0"/>
      <point x="106.0" y="115.0"/>
      <point x="106.0" y="240.0" type="qcurve" smooth="yes"/>
      <point x="106.0" y="308.0"/>
      <point x="105.0" y="477.0"/>
      <point x="105.0" y="463.0" type="qcurve" smooth="yes"/>
      <point x="102.0" y="835.0" type="line"/>
    </contour>
  </outline>
</glyph>
<glyph name="w" format="2">
  <advance width="864"/>
  <unicode hex="0077"/>
  <outline>
    <contour>
      <point x="-18.0" y="897.0" type="line"/>
      <point x="-18.0" y="920.0" type="line"/>
      <point x="236.0" y="920.0" type="line"/>
      <point x="236.0" y="897.0" type="line"/>
      <point x="194.0" y="860.0" type="line"/>
      <point x="279.0" y="488.0" type="line"/>
      <point x="345.0" y="168.0" type="line"/>
      <point x="399.0" y="395.0" type="line"/>
      <point x="471.0" y="671.0" type="line"/>
      <point x="494.0" y="661.0" type="line"/>
      <point x="417.0" y="384.0" type="line"/>
      <point x="329.0" y="-6.0" type="line"/>
      <point x="233.0" y="-6.0" type="line"/>
      <point x="142.0" y="451.0" type="line"/>
      <point x="52.0" y="862.0" type="line"/>
    </contour>
    <contour>
      <point x="287.0" y="897.0" type="line"/>
      <point x="287.0" y="920.0" type="line"/>
      <point x="540.0" y="920.0" type="line"/>
      <point x="540.0" y="897.0" type="line"/>
      <point x="474.0" y="860.0" type="line"/>
      <point x="557.0" y="459.0" type="line"/>
      <point x="606.0" y="162.0" type="line"/>
      <point x="664.0" y="467.0" type="line"/>
      <point x="744.0" y="864.0" type="line"/>
      <point x="642.0" y="897.0" type="line"/>
      <point x="642.0" y="920.0" type="line"/>
      <point x="865.0" y="920.0" type="line"/>
      <point x="865.0" y="897.0" type="line"/>
      <point x="775.0" y="862.0" type="line"/>
      <point x="687.0" y="448.0" type="line"/>
      <point x="602.0" y="-6.0" type="line"/>
      <point x="506.0" y="-6.0" type="line"/>
      <point x="422.0" y="428.0" type="line"/>
      <point x="337.0" y="862.0" type="line"/>
    </contour>
  </outline>
</glyph>
<glyph name="y" format="2">
  <advance width="614"/>
  <unicode hex="0079"/>
  <outline>
    <contour>
      <point x="-25.0" y="897.0" type="line"/>
      <point x="-24.0" y="920.0" type="line"/>
      <point x="257.0" y="920.0" type="line"/>
      <point x="257.0" y="897.0" type="line"/>
      <point x="189.0" y="860.0" type="line"/>
      <point x="281.0" y="522.0" type="line"/>
      <point x="355.0" y="239.0" type="line"/>
      <point x="396.0" y="506.0" type="line"/>
      <point x="469.0" y="866.0" type="line"/>
      <point x="363.0" y="897.0" type="line"/>
      <point x="363.0" y="920.0" type="line"/>
      <point x="614.0" y="920.0" type="line"/>
      <point x="614.0" y="897.0" type="line"/>
      <point x="502.0" y="865.0" type="line"/>
      <point x="422.0" y="497.0" type="line"/>
      <point x="360.0" y="15.0" type="line" smooth="yes"/>
      <point x="286.0" y="-293.0"/>
      <point x="154.0" y="-481.0"/>
      <point x="82.0" y="-481.0" type="qcurve"/>
      <point x="-1.0" y="-437.0" type="line"/>
      <point x="-1.0" y="-417.0" type="line"/>
      <point x="49.0" y="-417.0" type="line" smooth="yes"/>
      <point x="160.0" y="-417.0"/>
      <point x="251.0" y="-268.0"/>
      <point x="289.0" y="-116.0" type="qcurve" smooth="yes"/>
      <point x="310.0" y="-4.0" type="line"/>
      <point x="310.0" y="-4.0" type="line"/>
      <point x="159.0" y="461.0" type="line"/>
      <point x="36.0" y="862.0" type="line"/>
    </contour>
  </outline>
</glyph>
<glyph name="yen" format="2">
  <advance width="930"/>
  <unicode hex="00A5"/>
  <outline>
    <contour>
      <point x="140.0" y="671.0" type="line"/>
      <point x="127.0" y="707.0" type="line"/>
      <point x="811.0" y="707.0" type="line"/>
      <point x="801.0" y="671.0" type="line"/>
    </contour>
    <contour>
      <point x="391.0" y="652.0" type="line"/>
      <point x="257.0" y="1023.0" type="line"/>
      <point x="70.0" y="1443.0" type="line"/>
      <point x="-21.0" y="1477.0" type="line"/>
      <point x="-21.0" y="1500.0" type="line"/>
      <point x="365.0" y="1500.0" type="line"/>
      <point x="365.0" y="1477.0" type="line"/>
      <point x="258.0" y="1443.0" type="line"/>
      <point x="389.0" y="1079.0" type="line"/>
      <point x="527.0" y="721.0" type="line"/>
      <point x="627.0" y="1036.0" type="line"/>
      <point x="773.0" y="1444.0" type="line"/>
      <point x="616.0" y="1477.0" type="line"/>
      <point x="616.0" y="1500.0" type="line"/>
      <point x="951.0" y="1500.0" type="line"/>
      <point x="951.0" y="1477.0" type="line"/>
      <point x="804.0" y="1443.0" type="line"/>
      <point x="658.0" y="1024.0" type="line"/>
      <point x="545.0" y="683.0" type="line"/>
      <point x="547.0" y="56.0" type="line"/>
      <point x="668.0" y="23.0" type="line"/>
      <point x="668.0" y="0.0" type="line"/>
      <point x="270.0" y="0.0" type="line"/>
      <point x="270.0" y="23.0" type="line"/>
      <point x="389.0" y="56.0" type="line"/>
    </contour>
    <contour>
      <point x="197.0" y="421.0" type="line"/>
      <point x="177.0" y="457.0" type="line"/>
      <point x="771.0" y="457.0" type="line"/>
      <point x="761.0" y="421.0" type="line"/>
    </contour>
  </outline>
</glyph>
<glyph name="copyright" format="2">
  <advance width="1491"/>
  <unicode hex="00A9"/>
  <outline>
    <contour>
      <point x="421.0" y="652.0" type="qcurve" smooth="yes"/>
      <point x="421.0" y="879.0"/>
      <point x="617.0" y="1119.0"/>
      <point x="761.0" y="1119.0" type="qcurve" smooth="yes"/>
      <point x="813.0" y="1119.0"/>
      <point x="899.0" y="1090.0"/>
      <point x="934.0" y="1066.0" type="qcurve"/>
      <point x="987.0" y="1121.0" type="line"/>
      <point x="997.0" y="1121.0" type="line"/>
      <point x="994.0" y="807.0" type="line"/>
      <point x="983.0" y="807.0" type="line"/>
      <point x="925.0" y="975.0" type="line"/>
      <point x="914.0" y="1018.0"/>
      <point x="821.0" y="1091.0"/>
      <point x="765.0" y="1091.0" type="qcurve" smooth="yes"/>
      <point x="665.0" y="1091.0"/>
      <point x="565.0" y="896.0"/>
      <point x="565.0" y="687.0" type="qcurve" smooth="yes"/>
      <point x="565.0" y="501.0"/>
      <point x="684.0" y="320.0"/>
      <point x="788.0" y="320.0" type="qcurve" smooth="yes"/>
      <point x="890.0" y="320.0"/>
      <point x="993.0" y="399.0"/>
      <point x="1028.0" y="467.0" type="qcurve"/>
      <point x="1037.0" y="454.0" type="line"/>
      <point x="1020.0" y="373.0"/>
      <point x="875.0" y="235.0"/>
      <point x="755.0" y="235.0" type="qcurve" smooth="yes"/>
      <point x="608.0" y="235.0"/>
      <point x="421.0" y="454.0"/>
    </contour>
    <contour>
      <point x="68.0" y="679.0" type="qcurve" smooth="yes"/>
      <point x="68.0" y="1035.0"/>
      <point x="452.0" y="1516.0"/>
      <point x="747.0" y="1516.0" type="qcurve" smooth="yes"/>
      <point x="1042.0" y="1516.0"/>
      <point x="1423.0" y="1060.0"/>
      <point x="1423.0" y="700.0" type="qcurve" smooth="yes"/>
      <point x="1423.0" y="305.0"/>
      <point x="1048.0" y="-196.0"/>
      <point x="756.0" y="-196.0" type="qcurve" smooth="yes"/>
      <point x="456.0" y="-196.0"/>
      <point x="68.0" y="293.0"/>
    </contour>
    <contour>
      <point x="92.0" y="675.0" type="qcurve" smooth="yes"/>
      <point x="92.0" y="321.0"/>
      <point x="470.0" y="-149.0"/>
      <point x="755.0" y="-149.0" type="qcurve" smooth="yes"/>
      <point x="1034.0" y="-149.0"/>
      <point x="1399.0" y="327.0"/>
      <point x="1399.0" y="693.0" type="qcurve" smooth="yes"/>
      <point x="1399.0" y="1009.0"/>
      <point x="1036.0" y="1469.0"/>
      <point x="737.0" y="1469.0" type="qcurve" smooth="yes"/>
      <point x="461.0" y="1469.0"/>
      <point x="92.0" y="1000.0"/>
    </contour>
  </outline>
</glyph>
<glyph name="guillemetleft" format="2">
  <advance width="1013"/>
  <unicode hex="00AB"/>
  <outline>
    <contour>
      <point x="20.0" y="622.0" type="line"/>
      <point x="20.0" y="622.0"/>
      <point x="509.0" y="964.0"/>
      <point x="527.0" y="975.0" type="qcurve" smooth="yes"/>
      <point x="524.0" y="975.0"/>
      <point x="542.0" y="949.0"/>
      <point x="550.0" y="943.0" type="qcurve" smooth="yes"/>
      <point x="567.0" y="934.0"/>
      <point x="187.0" y="623.0"/>
      <point x="173.0" y="612.0" type="qcurve"/>
      <point x="185.0" y="600.0"/>
      <point x="526.0" y="300.0"/>
      <point x="554.0" y="265.0" type="qcurve" smooth="yes"/>
      <point x="544.0" y="260.0"/>
      <point x="529.0" y="225.0"/>
      <point x="538.0" y="227.0" type="qcurve" smooth="yes"/>
      <point x="477.0" y="273.0"/>
      <point x="80.0" y="543.0"/>
      <point x="20.0" y="586.0" type="qcurve"/>
    </contour>
    <contour>
      <point x="450.0" y="622.0" type="line"/>
      <point x="450.0" y="622.0"/>
      <point x="936.0" y="960.0"/>
      <point x="953.0" y="972.0" type="qcurve" smooth="yes"/>
      <point x="950.0" y="971.0"/>
      <point x="975.0" y="950.0"/>
      <point x="980.0" y="943.0" type="qcurve" smooth="yes"/>
      <point x="1001.0" y="942.0"/>
      <point x="621.0" y="629.0"/>
      <point x="599.0" y="610.0" type="qcurve"/>
      <point x="613.0" y="598.0"/>
      <point x="975.0" y="286.0"/>
      <point x="984.0" y="265.0" type="qcurve" smooth="yes"/>
      <point x="972.0" y="262.0"/>
      <point x="958.0" y="222.0"/>
      <point x="967.0" y="226.0" type="qcurve" smooth="yes"/>
      <point x="904.0" y="267.0"/>
      <point x="510.0" y="543.0"/>
      <point x="450.0" y="586.0" type="qcurve"/>
    </contour>
  </outline>
</glyph>
<glyph name="cedilla" format="2">
  <advance width="896"/>
  <unicode hex="00B8"/>
  <outline>
    <contour>
      <point x="463.0" y="26.0" type="line"/>
      <point x="396.0" y="-100.0" type="line"/>
      <point x="419.0" y="-90.0"/>
      <point x="494.0" y="-73.0"/>
      <point x="517.0" y="-73.0" type="qcurve" smooth="yes"/>
      <point x="581.0" y="-73.0"/>
      <point x="673.0" y="-145.0"/>
      <point x="673.0" y="-217.0" type="qcurve" smooth="yes"/>
      <point x="673.0" y="-304.0"/>
      <point x="546.0" y="-384.0"/>
      <point x="462.0" y="-384.0" type="qcurve" smooth="yes"/>
      <point x="392.0" y="-384.0"/>
      <point x="304.0" y="-334.0"/>
      <point x="263.0" y="-286.0" type="qcurve"/>
      <point x="278.0" y="-283.0" type="line"/>
      <point x="313.0" y="-310.0"/>
      <point x="391.0" y="-331.0"/>
      <point x="430.0" y="-331.0" type="qcurve" smooth="yes"/>
      <point x="499.0" y="-331.0"/>
      <point x="575.0" y="-282.0"/>
      <point x="575.0" y="-230.0" type="qcurve" smooth="yes"/>
      <point x="575.0" y="-181.0"/>
      <point x="510.0" y="-131.0"/>
      <point x="469.0" y="-131.0" type="qcurve" smooth="yes"/>
      <point x="445.0" y="-131.0"/>
      <point x="407.0" y="-144.0"/>
      <point x="393.0" y="-151.0" type="qcurve"/>
      <point x="364.0" y="-101.0" type="line"/>
      <point x="441.0" y="37.0" type="line"/>
    </contour>
  </outline>
</glyph>
<glyph name="ordmasculine" format="2">
  <advance width="432"/>
  <unicode hex="00BA"/>
  <outline>
    <contour>
      <point x="20.0" y="1145.0" type="qcurve" smooth="yes"/>
      <point x="20.0" y="1314.0"/>
      <point x="138.0" y="1509.0"/>
      <point x="218.0" y="1509.0" type="qcurve" smooth="yes"/>
      <point x="298.0" y="1509.0"/>
      <point x="412.0" y="1316.0"/>
      <point x="412.0" y="1148.0" type="qcurve" smooth="yes"/>
      <point x="412.0" y="978.0"/>
      <point x="294.0" y="783.0"/>
      <point x="217.0" y="783.0" type="qcurve" smooth="yes"/>
      <point x="136.0" y="783.0"/>
      <point x="20.0" y="977.0"/>
    </contour>
    <contour>
      <point x="123.0" y="1159.0" type="qcurve" smooth="yes"/>
      <point x="125.0" y="987.0"/>
      <point x="161.0" y="833.0"/>
      <point x="219.0" y="833.0" type="qcurve" smooth="yes"/>
      <point x="273.0" y="833.0"/>
      <point x="311.0" y="983.0"/>
      <point x="311.0" y="1148.0" type="qcurve" smooth="yes"/>
      <point x="311.0" y="1310.0"/>
      <point x="276.0" y="1456.0"/>
      <point x="218.0" y="1456.0" type="qcurve" smooth="yes"/>
      <point x="162.0" y="1456.0"/>
      <point x="122.0" y="1313.0"/>
    </contour>
  </outline>
</glyph>
<glyph name="divide" format="2">
  <advance width="685"/>
  <unicode hex="00F7"/>
  <outline>
    <contour>
      <point x="52.0" y="585.0" type="line"/>
      <point x="52.0" y="679.0" type="line"/>
      <point x="632.0" y="679.0" type="line"/>
      <point x="632.0" y="585.0" type="line"/>
    </contour>
    <contour>
      <point x="254.0" y="408.0" type="qcurve" smooth="yes"/>
      <point x="254.0" y="442.0"/>
      <point x="304.0" y="496.0"/>
      <point x="342.0" y="496.0" type="qcurve" smooth="yes"/>
      <point x="380.0" y="496.0"/>
      <point x="430.0" y="442.0"/>
      <point x="430.0" y="408.0" type="qcurve" smooth="yes"/>
      <point x="430.0" y="374.0"/>
      <point x="380.0" y="320.0"/>
      <point x="342.0" y="320.0" type="qcurve" smooth="yes"/>
      <point x="304.0" y="320.0"/>
      <point x="254.0" y="374.0"/>
    </contour>
    <contour>
      <point x="254.0" y="858.0" type="qcurve" smooth="yes"/>
      <point x="254.0" y="892.0"/>
      <point x="304.0" y="945.0"/>
      <point x="342.0" y="945.0" type="qcurve" smooth="yes"/>
      <point x="380.0" y="945.0"/>
      <point x="430.0" y="892.0"/>
      <point x="430.0" y="858.0" type="qcurve" smooth="yes"/>
      <point x="430.0" y="824.0"/>
      <point x="380.0" y="770.0"/>
      <point x="342.0" y="770.0" type="qcurve" smooth="yes"/>
      <point x="304.0" y="770.0"/>
      <point x="254.0" y="824.0"/>
    </contour>
  </outline>
</glyph>
<glyph name="schwa" format="2">
  <advance width="498"/>
  <unicode hex="0259"/>
  <outline>
    <contour>
      <point x="464.0" y="447.0" type="qcurve" smooth="yes"/>
      <point x="464.0" y="207.0"/>
      <point x="324.0" y="-17.0"/>
      <point x="207.0" y="-17.0" type="qcurve" smooth="yes"/>
      <point x="100.0" y="-17.0"/>
      <point x="-19.0" y="201.0"/>
      <point x="-11.0" y="393.0" type="qcurve"/>
      <point x="-12.0" y="418.0" type="line"/>
      <point x="334.0" y="418.0" type="line"/>
      <point x="334.0" y="389.0" type="line"/>
      <point x="132.0" y="389.0" type="line"/>
      <point x="130.0" y="238.0"/>
      <point x="140.0" y="11.0"/>
      <point x="209.0" y="11.0" type="qcurve" smooth="yes"/>
      <point x="261.0" y="11.0"/>
      <point x="311.0" y="205.0"/>
      <point x="311.0" y="433.0" type="qcurve" smooth="yes"/>
      <point x="312.0" y="703.0"/>
      <point x="259.0" y="881.0"/>
      <point x="179.0" y="881.0" type="qcurve" smooth="yes"/>
      <point x="114.0" y="881.0"/>
      <point x="11.0" y="784.0"/>
      <point x="-21.0" y="728.0" type="qcurve"/>
      <point x="-23.0" y="741.0" type="line"/>
      <point x="6.0" y="818.0"/>
      <point x="117.0" y="939.0"/>
      <point x="169.0" y="939.0" type="qcurve" smooth="yes"/>
      <point x="322.0" y="939.0"/>
      <point x="464.0" y="683.0"/>
    </contour>
  </outline>
</glyph>
<glyph name="caron" format="2">
  <advance width="896"/>
  <unicode hex="02C7"/>
  <outline>
    <contour>
      <point x="449.0" y="1005.0" type="qcurve" smooth="yes"/>
      <point x="422.0" y="1005.0"/>
      <point x="397.0" y="1045.0"/>
      <point x="374.0" y="1082.0" type="qcurve" smooth="yes"/>
      <point x="268.0" y="1287.0" type="line"/>
      <point x="276.0" y="1291.0" type="line"/>
      <point x="449.0" y="1114.0" type="line"/>
      <point x="622.0" y="1291.0" type="line"/>
      <point x="628.0" y="1288.0" type="line"/>
      <point x="524.0" y="1082.0" type="line" smooth="yes"/>
      <point x="499.0" y="1034.0"/>
      <point x="476.0" y="1005.0"/>
    </contour>
  </outline>
</glyph>
<glyph name="dotaccent" format="2">
  <advance width="896"/>
  <unicode hex="02D9"/>
  <outline>
    <contour>
      <point x="367.0" y="1055.0" type="qcurve" smooth="yes"/>
      <point x="367.0" y="1095.0"/>
      <point x="414.0" y="1146.0"/>
      <point x="448.0" y="1146.0" type="qcurve" smooth="yes"/>
      <point x="480.0" y="1146.0"/>
      <point x="529.0" y="1091.0"/>
      <point x="529.0" y="1055.0" type="qcurve" smooth="yes"/>
      <point x="529.0" y="1016.0"/>
      <point x="482.0" y="964.0"/>
      <point x="448.0" y="964.0" type="qcurve" smooth="yes"/>
      <point x="416.0" y="964.0"/>
      <point x="367.0" y="1019.0"/>
    </contour>
  </outline>
</glyph>
<glyph name="tilde" format="2">
  <advance width="896"/>
  <unicode hex="02DC"/>
  <outline>
    <contour>
      <point x="248.0" y="1053.0" type="line"/>
      <point x="260.0" y="1096.0"/>
      <point x="323.0" y="1199.0"/>
      <point x="376.0" y="1199.0" type="qcurve" smooth="yes"/>
      <point x="398.0" y="1199.0"/>
      <point x="437.0" y="1180.0"/>
      <point x="456.0" y="1161.0" type="qcurve" smooth="yes"/>
      <point x="472.0" y="1146.0"/>
      <point x="505.0" y="1113.0"/>
      <point x="537.0" y="1113.0" type="qcurve" smooth="yes"/>
      <point x="556.0" y="1113.0"/>
      <point x="584.0" y="1164.0"/>
      <point x="592.0" y="1189.0" type="qcurve"/>
      <point x="621.0" y="1180.0" type="line"/>
      <point x="607.0" y="1128.0"/>
      <point x="558.0" y="1036.0"/>
      <point x="512.0" y="1036.0" type="qcurve" smooth="yes"/>
      <point x="488.0" y="1036.0"/>
      <point x="444.0" y="1055.0"/>
      <point x="424.0" y="1070.0" type="qcurve" smooth="yes"/>
      <point x="407.0" y="1085.0"/>
      <point x="363.0" y="1122.0"/>
      <point x="347.0" y="1122.0" type="qcurve" smooth="yes"/>
      <point x="323.0" y="1122.0"/>
      <point x="272.0" y="1067.0"/>
      <point x="263.0" y="1046.0" type="qcurve"/>
    </contour>
  </outline>
</glyph>
<glyph name="dieresisbelowcomb" format="2">
  <advance width="896"/>
  <unicode hex="0324"/>
  <outline>
    <contour>
      <point x="285.0" y="-177.0" type="qcurve" smooth="yes"/>
      <point x="285.0" y="-140.0"/>
      <point x="318.0" y="-102.0"/>
      <point x="350.0" y="-102.0" type="qcurve" smooth="yes"/>
      <point x="380.0" y="-102.0"/>
      <point x="415.0" y="-143.0"/>
      <point x="415.0" y="-177.0" type="qcurve" smooth="yes"/>
      <point x="415.0" y="-213.0"/>
      <point x="383.0" y="-251.0"/>
      <point x="350.0" y="-251.0" type="qcurve" smooth="yes"/>
      <point x="320.0" y="-251.0"/>
      <point x="285.0" y="-211.0"/>
    </contour>
    <contour>
      <point x="481.0" y="-177.0" type="qcurve" smooth="yes"/>
      <point x="481.0" y="-140.0"/>
      <point x="514.0" y="-102.0"/>
      <point x="546.0" y="-102.0" type="qcurve" smooth="yes"/>
      <point x="576.0" y="-102.0"/>
      <point x="611.0" y="-143.0"/>
      <point x="611.0" y="-177.0" type="qcurve" smooth="yes"/>
      <point x="611.0" y="-213.0"/>
      <point x="579.0" y="-251.0"/>
      <point x="546.0" y="-251.0" type="qcurve" smooth="yes"/>
      <point x="516.0" y="-251.0"/>
      <point x="481.0" y="-211.0"/>
    </contour>
  </outline>
</glyph>
<glyph name="brevebelowcomb" format="2">
  <advance width="896"/>
  <unicode hex="032E"/>
  <outline>
    <contour>
      <point x="624.0" y="-91.0" type="qcurve"/>
      <point x="625.0" y="-82.0" type="line"/>
      <point x="633.0" y="-142.0"/>
      <point x="520.0" y="-273.0"/>
      <point x="450.0" y="-273.0" type="qcurve" smooth="yes"/>
      <point x="364.0" y="-273.0"/>
      <point x="268.0" y="-162.0"/>
      <point x="270.0" y="-88.0" type="qcurve"/>
      <point x="271.0" y="-90.0" type="line"/>
      <point x="279.0" y="-134.0"/>
      <point x="383.0" y="-196.0"/>
      <point x="452.0" y="-197.0" type="qcurve" smooth="yes"/>
      <point x="521.0" y="-196.0"/>
      <point x="625.0" y="-126.0"/>
    </contour>
  </outline>
</glyph>
<glyph name="macronbelowcomb" format="2">
  <advance width="896"/>
  <unicode hex="0331"/>
  <outline>
    <contour>
      <point x="246.0" y="-302.0" type="line"/>
      <point x="246.0" y="-241.0" type="line"/>
      <point x="650.0" y="-241.0" type="line"/>
      <point x="650.0" y="-302.0" type="line"/>
    </contour>
  </outline>
</glyph>
<glyph name="dagger" format="2">
  <advance width="828"/>
  <unicode hex="2020"/>
  <outline>
    <contour>
      <point x="407.0" y="-480.0" type="line"/>
      <point x="351.0" y="-28.0" type="line"/>
      <point x="384.0" y="350.0" type="line"/>
      <point x="384.0" y="940.0" type="line"/>
      <point x="333.0" y="1438.0" type="line"/>
      <point x="371.0" y="1503.0" type="line"/>
      <point x="431.0" y="1505.0" type="line"/>
      <point x="469.0" y="1438.0" type="line"/>
      <point x="425.0" y="940.0" type="line"/>
      <point x="425.0" y="350.0" type="line"/>
      <point x="457.0" y="-28.0" type="line"/>
      <point x="408.0" y="-480.0" type="line"/>
    </contour>
    <contour>
      <point x="42.0" y="924.0" type="line"/>
      <point x="42.0" y="939.0" type="line"/>
      <point x="405.0" y="972.0" type="line"/>
      <point x="786.0" y="939.0" type="line"/>
      <point x="786.0" y="924.0" type="line"/>
      <point x="405.0" y="939.0" type="line"/>
    </contour>
  </outline>
</glyph>
<glyph name="guilsinglright" format="2">
  <advance width="532"/>
  <unicode hex="203A"/>
  <outline>
    <contour>
      <point x="512.0" y="586.0" type="line"/>
      <point x="452.0" y="543.0"/>
      <point x="57.0" y="225.0"/>
      <point x="43.0" y="216.0" type="qcurve" smooth="yes"/>
      <point x="45.0" y="220.0"/>
      <point x="39.0" y="245.0"/>
      <point x="32.0" y="251.0" type="qcurve" smooth="yes"/>
      <point x="-21.0" y="229.0"/>
      <point x="332.0" y="584.0"/>
      <point x="354.0" y="603.0" type="qcurve"/>
      <point x="340.0" y="615.0"/>
      <point x="73.0" y="891.0"/>
      <point x="34.0" y="935.0" type="qcurve" smooth="yes"/>
      <point x="43.0" y="938.0"/>
      <point x="69.0" y="969.0"/>
      <point x="60.0" y="963.0" type="qcurve" smooth="yes"/>
      <point x="125.0" y="919.0"/>
      <point x="512.0" y="602.0"/>
      <point x="512.0" y="602.0" type="qcurve"/>
    </contour>
  </outline>
</glyph>
<glyph name="won" format="2">
  <advance width="1150"/>
  <unicode hex="20A9"/>
  <outline>
    <contour>
      <point x="-33.0" y="1480.0" type="line"/>
      <point x="-33.0" y="1500.0" type="line"/>
      <point x="299.0" y="1500.0" type="line"/>
      <point x="299.0" y="1480.0" type="line"/>
      <point x="204.0" y="1445.0" type="line"/>
      <point x="301.0" y="812.0" type="line"/>
      <point x="390.0" y="252.0" type="line"/>
      <point x="495.0" y="789.0" type="line"/>
      <point x="540.0" y="1167.0" type="line"/>
      <point x="569.0" y="1114.0" type="line"/>
      <point x="521.0" y="777.0" type="line"/>
      <point x="386.0" y="-6.0" type="line"/>
      <point x="280.0" y="-6.0" type="line"/>
      <point x="161.0" y="768.0" type="line"/>
      <point x="52.0" y="1444.0" type="line"/>
    </contour>
    <contour>
      <point x="389.0" y="1477.0" type="line"/>
      <point x="389.0" y="1500.0" type="line"/>
      <point x="700.0" y="1500.0" type="line"/>
      <point x="700.0" y="1477.0" type="line"/>
      <point x="618.0" y="1443.0" type="line"/>
      <point x="710.0" y="800.0" type="line"/>
      <point x="798.0" y="262.0" type="line"/>
      <point x="877.0" y="806.0" type="line"/>
      <point x="970.0" y="1440.0" type="line"/>
      <point x="832.0" y="1479.0" type="line"/>
      <point x="832.0" y="1500.0" type="line"/>
      <point x="1140.0" y="1500.0" type="line"/>
      <point x="1140.0" y="1479.0" type="line"/>
      <point x="995.0" y="1444.0" type="line"/>
      <point x="902.0" y="797.0" type="line"/>
      <point x="786.0" y="-6.0" type="line"/>
      <point x="694.0" y="-6.0" type="line"/>
      <point x="579.0" y="753.0" type="line"/>
      <point x="472.0" y="1442.0" type="line"/>
    </contour>
    <contour>
      <point x="986.0" y="598.0" type="line"/>
      <point x="861.0" y="598.0" type="line"/>
      <point x="861.0" y="588.0" type="line"/>
      <point x="685.0" y="588.0" type="line"/>
      <point x="676.0" y="628.0" type="line"/>
      <point x="872.0" y="628.0" type="line"/>
      <point x="872.0" y="618.0" type="line"/>
      <point x="997.0" y="618.0" type="line"/>
    </contour>
    <contour>
      <point x="1041.0" y="951.0" type="line"/>
      <point x="926.0" y="951.0" type="line"/>
      <point x="926.0" y="941.0" type="line"/>
      <point x="665.0" y="941.0" type="line"/>
      <point x="657.0" y="981.0" type="line"/>
      <point x="937.0" y="981.0" type="line"/>
      <point x="937.0" y="971.0" type="line"/>
      <point x="1045.0" y="971.0" type="line"/>
    </contour>
    <contour>
      <point x="149.0" y="598.0" type="line"/>
      <point x="128.0" y="618.0" type="line"/>
      <point x="299.0" y="618.0" type="line"/>
      <point x="299.0" y="628.0" type="line"/>
      <point x="676.0" y="628.0" type="line"/>
      <point x="685.0" y="588.0" type="line"/>
      <point x="315.0" y="588.0" type="line"/>
      <point x="315.0" y="598.0" type="line"/>
    </contour>
    <contour>
      <point x="65.0" y="951.0" type="line"/>
      <point x="50.0" y="971.0" type="line"/>
      <point x="203.0" y="971.0" type="line"/>
      <point x="203.0" y="981.0" type="line"/>
      <point x="657.0" y="981.0" type="line"/>
      <point x="665.0" y="941.0" type="line"/>
      <point x="215.0" y="941.0" type="line"/>
      <point x="215.0" y="951.0" type="line"/>
    </contour>
  </outline>
</glyph>
<glyph name="kip" format="2">
  <advance width="976"/>
  <unicode hex="20AD"/>
  <outline>
    <contour>
      <point x="46.0" y="0.0" type="line"/>
      <point x="46.0" y="21.0" type="line"/>
      <point x="171.0" y="56.0" type="line"/>
      <point x="173.0" y="754.0" type="line"/>
      <point x="171.0" y="1443.0" type="line"/>
      <point x="46.0" y="1477.0" type="line"/>
      <point x="46.0" y="1500.0" type="line"/>
      <point x="462.0" y="1500.0" type="line"/>
      <point x="462.0" y="1477.0" type="line"/>
      <point x="326.0" y="1443.0" type="line"/>
      <point x="321.0" y="754.0" type="line"/>
      <point x="326.0" y="56.0" type="line"/>
      <point x="452.0" y="21.0" type="line"/>
      <point x="452.0" y="0.0" type="line"/>
    </contour>
    <contour>
      <point x="312.0" y="575.0" type="line"/>
      <point x="278.0" y="624.0" type="line"/>
      <point x="793.0" y="1447.0" type="line"/>
      <point x="665.0" y="1477.0" type="line"/>
      <point x="665.0" y="1500.0" type="line"/>
      <point x="985.0" y="1500.0" type="line"/>
      <point x="985.0" y="1477.0" type="line"/>
      <point x="828.0" y="1447.0" type="line"/>
      <point x="581.0" y="1021.0" type="line"/>
      <point x="575.0" y="959.0" type="line"/>
    </contour>
    <contour>
      <point x="496.0" y="857.0" type="line"/>
      <point x="606.0" y="1006.0" type="line"/>
      <point x="946.0" y="55.0" type="line"/>
      <point x="1049.0" y="21.0" type="line"/>
      <point x="1049.0" y="0.0" type="line"/>
      <point x="691.0" y="0.0" type="line"/>
      <point x="691.0" y="21.0" type="line"/>
      <point x="797.0" y="55.0" type="line"/>
    </contour>
    <contour>
      <point x="805.0" y="824.0" type="line"/>
      <point x="683.0" y="824.0" type="line"/>
      <point x="683.0" y="814.0" type="line"/>
      <point x="554.0" y="814.0" type="line"/>
      <point x="547.0" y="844.0" type="line"/>
      <point x="593.0" y="844.0" type="line"/>
      <point x="593.0" y="834.0" type="line"/>
      <point x="790.0" y="834.0" type="line"/>
    </contour>
    <contour>
      <point x="101.0" y="824.0" type="line"/>
      <point x="87.0" y="834.0" type="line"/>
      <point x="327.0" y="834.0" type="line"/>
      <point x="327.0" y="844.0" type="line"/>
      <point x="547.0" y="844.0" type="line"/>
      <point x="554.0" y="814.0" type="line"/>
      <point x="327.0" y="814.0" type="line"/>
      <point x="327.0" y="824.0" type="line"/>
    </contour>
  </outline>
</glyph>
<glyph name="peso" format="2">
  <advance width="901"/>
  <unicode hex="20B1"/>
  <outline>
    <contour>
      <point x="52.0" y="0.0" type="line"/>
      <point x="52.0" y="25.0" type="line"/>
      <point x="178.0" y="62.0" type="line"/>
      <point x="180.0" y="754.0" type="line"/>
      <point x="178.0" y="1456.233870967742" type="line"/>
      <point x="52.0" y="1471.0" type="line"/>
      <point x="52.0" y="1500.0" type="line"/>
      <point x="449.0" y="1521.75" type="line" smooth="yes"/>
      <point x="599.0" y="1531.7016129032259"/>
      <point x="782.0" y="1293.0"/>
      <point x="782.0" y="1085.0" type="qcurve" smooth="yes"/>
      <point x="782.0" y="881.0"/>
      <point x="613.0" y="650.0"/>
      <point x="433.0" y="650.0" type="qcurve" smooth="yes"/>
      <point x="394.0" y="650.0"/>
      <point x="301.0" y="666.0"/>
      <point x="271.0" y="677.0" type="qcurve"/>
      <point x="279.0" y="706.0" type="line"/>
      <point x="324.0" y="689.0"/>
      <point x="372.0" y="679.0"/>
      <point x="432.0" y="679.0" type="qcurve" smooth="yes"/>
      <point x="527.0" y="679.0"/>
      <point x="620.0" y="862.0"/>
      <point x="620.0" y="1093.0" type="qcurve" smooth="yes"/>
      <point x="620.0" y="1286.0"/>
      <point x="510.7177419354839" y="1488.1854838709678"/>
      <point x="409.0" y="1500.467741935484" type="qcurve" smooth="yes"/>
      <point x="350.0" y="1500.467741935484" type="line"/>
      <point x="329.0" y="1476.467741935484" type="line"/>
      <point x="327.0" y="764.0" type="line"/>
      <point x="329.0" y="57.0" type="line"/>
      <point x="467.0" y="25.0" type="line"/>
      <point x="467.0" y="0.0" type="line"/>
    </contour>
    <contour>
      <point x="839.0" y="854.0" type="line"/>
      <point x="661.0" y="854.0" type="line"/>
      <point x="661.0" y="853.8467741935484" type="line"/>
      <point x="598.0" y="853.8467741935484" type="line"/>
      <point x="540.0" y="877.4354838709677" type="line"/>
      <point x="685.0" y="877.4354838709677" type="line"/>
      <point x="685.0" y="879.0" type="line"/>
      <point x="841.0" y="879.0" type="line"/>
    </contour>
    <contour>
      <point x="81.0" y="856.8467741935484" type="line"/>
      <point x="70.0" y="880.0" type="line"/>
      <point x="262.0" y="880.0" type="line"/>
      <point x="262.0" y="877.4354838709677" type="line"/>
      <point x="540.0" y="877.4354838709677" type="line"/>
      <point x="598.0" y="855.1290322580645" type="line"/>
      <point x="262.0" y="855.1290322580645" type="line"/>
      <point x="262.0" y="856.8467741935484" type="line"/>
    </contour>
    <contour>
      <point x="854.0" y="1153.717741935484" type="line"/>
      <point x="709.0" y="1153.717741935484" type="line"/>
      <point x="709.0" y="1153.717741935484" type="line"/>
      <point x="541.0" y="1153.717741935484" type="line"/>
      <point x="478.0" y="1179.0" type="line"/>
      <point x="693.0" y="1179.0" type="line"/>
      <point x="693.0" y="1179.0" type="line"/>
      <point x="836.0" y="1179.0" type="line"/>
    </contour>
    <contour>
      <point x="71.0" y="1155.0" type="line"/>
      <point x="60.0" y="1179.0" type="line"/>
      <point x="262.0" y="1179.0" type="line"/>
      <point x="262.0" y="1179.0" type="line"/>
      <point x="478.0" y="1179.0" type="line"/>
      <point x="541.0" y="1155.0" type="line"/>
      <point x="262.0" y="1155.0" type="line"/>
      <point x="262.0" y="1155.0" type="line"/>
    </contour>
  </outline>
</glyph>
<glyph name="guarani" format="2">
  <advance width="862"/>
  <unicode hex="20B2"/>
  <outline>
    <contour>
      <point x="75.0" y="745.0" type="qcurve" smooth="yes"/>
      <point x="81.0" y="1146.0"/>
      <point x="306.0" y="1518.0"/>
      <point x="488.0" y="1518.0" type="qcurve" smooth="yes"/>
      <point x="600.0" y="1518.0"/>
      <point x="715.0" y="1297.0"/>
      <point x="715.0" y="1075.0" type="qcurve"/>
      <point x="710.0" y="1075.0" type="line"/>
      <point x="703.0" y="1278.0"/>
      <point x="587.0" y="1484.0"/>
      <point x="482.0" y="1484.0" type="qcurve" smooth="yes"/>
      <point x="387.0" y="1484.0"/>
      <point x="239.0" y="1171.0"/>
      <point x="236.0" y="766.0" type="qcurve" smooth="yes"/>
      <point x="231.0" y="377.0"/>
      <point x="337.0" y="9.0"/>
      <point x="452.0" y="9.0" type="qcurve" smooth="yes"/>
      <point x="513.0" y="9.0"/>
      <point x="629.0" y="134.0"/>
      <point x="625.0" y="355.0" type="qcurve" smooth="yes"/>
      <point x="622.0" y="495.0" type="line" smooth="yes"/>
      <point x="620.0" y="577.0"/>
      <point x="580.0" y="640.0"/>
      <point x="568.0" y="652.0" type="qcurve"/>
      <point x="562.0" y="677.0" type="line"/>
      <point x="756.0" y="669.0" type="line"/>
      <point x="750.0" y="177.0" type="line"/>
      <point x="711.0" y="88.0"/>
      <point x="558.0" y="-26.0"/>
      <point x="442.0" y="-26.0" type="qcurve" smooth="yes"/>
      <point x="292.0" y="-26.0"/>
      <point x="69.0" y="392.0"/>
    </contour>
    <contour>
      <point x="324.0" y="-109.0" type="line"/>
      <point x="356.0" y="30.0" type="line"/>
      <point x="351.0" y="30.0" type="line"/>
      <point x="513.0" y="871.0" type="line"/>
      <point x="520.0" y="825.0" type="line"/>
      <point x="364.0" y="25.0" type="line"/>
      <point x="359.0" y="26.0" type="line"/>
      <point x="328.0" y="-118.0" type="line"/>
    </contour>
    <contour>
      <point x="676.0" y="1638.0" type="line"/>
      <point x="677.0" y="1641.0" type="line"/>
      <point x="635.0" y="1449.0" type="line"/>
      <point x="642.0" y="1448.0" type="line"/>
      <point x="520.0" y="825.0" type="line"/>
      <point x="513.0" y="871.0" type="line"/>
      <point x="628.0" y="1452.0" type="line"/>
      <point x="634.0" y="1452.0" type="line"/>
    </contour>
  </outline>
</glyph>
<glyph name="manat" format="2">
  <advance width="1059"/>
  <unicode hex="20BC"/>
  <outline>
    <contour>
      <point x="1012.0" y="5.0" type="line"/>
      <point x="1012.0" y="0.0" type="line"/>
      <point x="635.0" y="0.0" type="line"/>
      <point x="635.0" y="5.0" type="line"/>
      <point x="739.0" y="40.0" type="line"/>
      <point x="744.0" y="706.0" type="line"/>
      <point x="741.0" y="1053.0" type="line" smooth="yes"/>
      <point x="739.0" y="1253.0"/>
      <point x="666.0" y="1438.0"/>
      <point x="511.0" y="1438.0" type="qcurve" smooth="yes"/>
      <point x="372.0" y="1438.0"/>
      <point x="238.0" y="1238.0"/>
      <point x="243.0" y="1032.0" type="qcurve" smooth="yes"/>
      <point x="241.0" y="706.0" type="line"/>
      <point x="243.0" y="40.0" type="line"/>
      <point x="401.0" y="5.0" type="line"/>
      <point x="401.0" y="0.0" type="line"/>
      <point x="35.0" y="0.0" type="line"/>
      <point x="35.0" y="5.0" type="line"/>
      <point x="207.0" y="40.0" type="line"/>
      <point x="207.0" y="706.0" type="line"/>
      <point x="207.0" y="1025.0" type="line" smooth="yes"/>
      <point x="207.0" y="1262.0"/>
      <point x="351.0" y="1475.0"/>
      <point x="541.0" y="1475.0" type="qcurve" smooth="yes"/>
      <point x="751.0" y="1475.0"/>
      <point x="881.0" y="1245.0"/>
      <point x="887.0" y="1034.0" type="qcurve" smooth="yes"/>
      <point x="885.0" y="706.0" type="line"/>
      <point x="887.0" y="40.0" type="line"/>
    </contour>
    <contour>
      <point x="488.0" y="290.0" type="line"/>
      <point x="492.0" y="662.0" type="line"/>
      <point x="492.0" y="1350.0" type="line"/>
      <point x="497.0" y="1574.0" type="line"/>
      <point x="527.0" y="1590.0" type="line"/>
      <point x="521.0" y="1350.0" type="line"/>
      <point x="521.0" y="762.0" type="line"/>
      <point x="516.0" y="310.0" type="line"/>
    </contour>
  </outline>
</glyph>
<glyph name="trademark" format="2">
  <advance width="1160"/>
  <unicode hex="2122"/>
  <outline>
    <contour>
      <point x="55.0" y="1265.0" type="line"/>
      <point x="55.0" y="1500.0" type="line"/>
      <point x="460.0" y="1500.0" type="line"/>
      <point x="460.0" y="1265.0" type="line"/>
      <point x="437.0" y="1265.0" type="line"/>
      <point x="395.0" y="1470.0" type="line"/>
      <point x="318.0" y="1470.0" type="line"/>
      <point x="308.0" y="1453.0" type="line"/>
      <point x="304.0" y="1196.0" type="line"/>
      <point x="308.0" y="928.0" type="line"/>
      <point x="385.0" y="903.0" type="line"/>
      <point x="385.0" y="886.0" type="line"/>
      <point x="119.0" y="886.0" type="line"/>
      <point x="119.0" y="903.0" type="line"/>
      <point x="211.0" y="928.0" type="line"/>
      <point x="211.0" y="1196.0" type="line"/>
      <point x="206.0" y="1453.0" type="line"/>
      <point x="203.0" y="1470.0" type="line"/>
      <point x="120.0" y="1470.0" type="line"/>
      <point x="78.0" y="1265.0" type="line"/>
    </contour>
    <contour>
      <point x="480.0" y="887.0" type="line"/>
      <point x="480.0" y="902.0" type="line"/>
      <point x="563.0" y="926.0" type="line"/>
      <point x="565.0" y="1172.0" type="line"/>
      <point x="563.0" y="1447.0" type="line"/>
      <point x="494.0" y="1476.0" type="line"/>
      <point x="494.0" y="1500.0" type="line"/>
      <point x="673.0" y="1500.0" type="line"/>
      <point x="798.0" y="1016.0" type="line"/>
      <point x="929.0" y="1500.0" type="line"/>
      <point x="1116.0" y="1500.0" type="line"/>
      <point x="1116.0" y="1476.0" type="line"/>
      <point x="1040.0" y="1447.0" type="line"/>
      <point x="1039.0" y="1211.0" type="line"/>
      <point x="1040.0" y="924.0" type="line"/>
      <point x="1116.0" y="900.0" type="line"/>
      <point x="1116.0" y="886.0" type="line"/>
      <point x="874.0" y="886.0" type="line"/>
      <point x="874.0" y="900.0" type="line"/>
      <point x="944.0" y="924.0" type="line"/>
      <point x="944.0" y="1211.0" type="line"/>
      <point x="945.0" y="1451.0" type="line"/>
      <point x="787.0" y="879.0" type="line"/>
      <point x="743.0" y="879.0" type="line"/>
      <point x="596.0" y="1406.0" type="line"/>
      <point x="593.0" y="1172.0" type="line"/>
      <point x="595.0" y="926.0" type="line"/>
      <point x="659.0" y="902.0" type="line"/>
      <point x="659.0" y="887.0" type="line"/>
    </contour>
  </outline>
</glyph>
<glyph name="brevebelowcomb.case" format="2">
  <advance width="896"/>
  <outline>
    <contour>
      <point x="635.0" y="-216.0" type="qcurve"/>
      <point x="646.0" y="-222.0" type="line"/>
      <point x="644.0" y="-288.0"/>
      <point x="531.0" y="-402.0"/>
      <point x="450.0" y="-402.0" type="qcurve" smooth="yes"/>
      <point x="366.0" y="-402.0"/>
      <point x="260.0" y="-302.0"/>
      <point x="252.0" y="-225.0" type="qcurve"/>
      <point x="266.0" y="-216.0" type="line"/>
      <point x="282.0" y="-255.0"/>
      <point x="395.0" y="-331.0"/>
      <point x="451.0" y="-332.0" type="qcurve" smooth="yes"/>
      <point x="508.0" y="-331.0"/>
      <point x="622.0" y="-253.0"/>
    </contour>
  </outline>
</glyph>
<glyph name="circumflexcomb.case" format="2">
  <advance width="896"/>
  <outline>
    <contour>
      <point x="447.0" y="1876.0" type="qcurve" smooth="yes"/>
      <point x="465.0" y="1876.0"/>
      <point x="490.0" y="1829.0"/>
      <point x="525.0" y="1797.0" type="qcurve" smooth="yes"/>
      <point x="701.0" y="1586.0" type="line"/>
      <point x="685.0" y="1576.0" type="line"/>
      <point x="447.0" y="1758.0" type="line"/>
      <point x="219.0" y="1569.0" type="line"/>
      <point x="205.0" y="1585.0" type="line"/>
      <point x="369.0" y="1797.0" type="line" smooth="yes"/>
      <point x="400.0" y="1836.0"/>
      <point x="429.0" y="1876.0"/>
    </contour>
  </outline>
</glyph>
<glyph name="circumflexcombstack.case" format="2">
  <advance width="1024"/>
  <outline>
    <contour>
      <point x="512.0" y="1919.0" type="qcurve" smooth="yes"/>
      <point x="529.0" y="1919.0"/>
      <point x="570.0" y="1878.0"/>
      <point x="603.0" y="1840.0" type="qcurve" smooth="yes"/>
      <point x="789.0" y="1630.0" type="line"/>
      <point x="768.0" y="1614.0" type="line"/>
      <point x="512.0" y="1782.0" type="line"/>
      <point x="266.0" y="1614.0" type="line"/>
      <point x="247.0" y="1629.0" type="line"/>
      <point x="421.0" y="1835.0" type="line" smooth="yes"/>
      <point x="456.0" y="1876.0"/>
      <point x="495.0" y="1919.0"/>
    </contour>
  </outline>
</glyph>
<glyph name="dieresiscomb.case" format="2">
  <advance width="896"/>
  <outline>
    <contour>
      <point x="258.0" y="1653.0" type="qcurve" smooth="yes"/>
      <point x="258.0" y="1688.0"/>
      <point x="304.0" y="1733.0"/>
      <point x="340.0" y="1733.0" type="qcurve" smooth="yes"/>
      <point x="376.0" y="1733.0"/>
      <point x="421.0" y="1689.0"/>
      <point x="421.0" y="1653.0" type="qcurve" smooth="yes"/>
      <point x="421.0" y="1619.0"/>
      <point x="375.0" y="1573.0"/>
      <point x="340.0" y="1573.0" type="qcurve" smooth="yes"/>
      <point x="303.0" y="1573.0"/>
      <point x="258.0" y="1619.0"/>
    </contour>
    <contour>
      <point x="475.0" y="1653.0" type="qcurve" smooth="yes"/>
      <point x="475.0" y="1688.0"/>
      <point x="521.0" y="1733.0"/>
      <point x="556.0" y="1733.0" type="qcurve" smooth="yes"/>
      <point x="593.0" y="1733.0"/>
      <point x="638.0" y="1689.0"/>
      <point x="638.0" y="1653.0" type="qcurve" smooth="yes"/>
      <point x="638.0" y="1619.0"/>
      <point x="592.0" y="1573.0"/>
      <point x="556.0" y="1573.0" type="qcurve" smooth="yes"/>
      <point x="520.0" y="1573.0"/>
      <point x="475.0" y="1619.0"/>
    </contour>
  </outline>
</glyph>
<glyph name="eight.lf" format="2">
  <advance width="668"/>
  <outline>
    <contour>
      <point x="20.0" y="348.0" type="qcurve" smooth="yes"/>
      <point x="20.0" y="514.0"/>
      <point x="210.0" y="753.0"/>
      <point x="303.0" y="814.0" type="qcurve"/>
      <point x="302.0" y="797.0" type="line"/>
      <point x="217.0" y="739.0"/>
      <point x="84.0" y="492.0"/>
      <point x="84.0" y="336.0" type="qcurve" smooth="yes"/>
      <point x="84.0" y="174.0"/>
      <point x="206.0" y="10.0"/>
      <point x="305.0" y="10.0" type="qcurve" smooth="yes"/>
      <point x="394.0" y="10.0"/>
      <point x="511.0" y="159.0"/>
      <point x="511.0" y="308.0" type="qcurve" smooth="yes"/>
      <point x="511.0" y="454.0"/>
      <point x="381.0" y="654.0"/>
      <point x="300.0" y="739.0" type="qcurve" smooth="yes"/>
      <point x="204.0" y="837.0"/>
      <point x="75.0" y="1020.0"/>
      <point x="75.0" y="1182.0" type="qcurve" smooth="yes"/>
      <point x="75.0" y="1335.0"/>
      <point x="213.0" y="1511.0"/>
      <point x="335.0" y="1511.0" type="qcurve" smooth="yes"/>
      <point x="435.0" y="1511.0"/>
      <point x="564.0" y="1362.0"/>
      <point x="564.0" y="1207.0" type="qcurve" smooth="yes"/>
      <point x="564.0" y="1078.0"/>
      <point x="448.0" y="889.0"/>
      <point x="362.0" y="821.0" type="qcurve"/>
      <point x="364.0" y="838.0" type="line"/>
      <point x="452.0" y="912.0"/>
      <point x="511.0" y="1095.0"/>
      <point x="511.0" y="1207.0" type="qcurve" smooth="yes"/>
      <point x="511.0" y="1347.0"/>
      <point x="415.0" y="1473.0"/>
      <point x="340.0" y="1473.0" type="qcurve" smooth="yes"/>
      <point x="278.0" y="1473.0"/>
      <point x="194.0" y="1363.0"/>
      <point x="194.0" y="1245.0" type="qcurve" smooth="yes"/>
      <point x="194.0" y="1122.0"/>
      <point x="272.0" y="975.0"/>
      <point x="374.0" y="875.0" type="qcurve" smooth="yes"/>
      <point x="469.0" y="779.0"/>
      <point x="639.0" y="545.0"/>
      <point x="639.0" y="374.0" type="qcurve" smooth="yes"/>
      <point x="639.0" y="188.0"/>
      <point x="444.0" y="-23.0"/>
      <point x="317.0" y="-23.0" type="qcurve" smooth="yes"/>
      <point x="208.0" y="-23.0"/>
      <point x="20.0" y="159.0"/>
    </contour>
  </outline>
</glyph>
<glyph name="horizontalbarlc" format="2">
  <advance width="636"/>
  <outline>
    <contour>
      <point x="327.0" y="715.0" type="line"/>
      <point x="114.0" y="715.0" type="line"/>
      <point x="122.0" y="733.0" type="line"/>
      <point x="339.0" y="733.0" type="line"/>
      <point x="593.0" y="733.0" type="line"/>
      <point x="595.0" y="715.0" type="line"/>
    </contour>
  </outline>
</glyph>
<glyph name="one.lc" format="2">
  <advance width="467"/>
  <outline>
    <contour>
      <point x="46.0" y="0.0" type="line"/>
      <point x="46.0" y="11.0" type="line"/>
      <point x="194.0" y="46.0" type="line"/>
      <point x="194.0" y="414.0" type="line"/>
      <point x="193.0" y="772.0" type="line"/>
      <point x="44.0" y="780.0" type="line"/>
      <point x="44.0" y="796.0" type="line"/>
      <point x="310.0" y="878.0" type="line"/>
      <point x="331.0" y="859.0" type="line"/>
      <point x="325.0" y="413.0" type="line"/>
      <point x="325.0" y="46.0" type="line"/>
      <point x="462.0" y="11.0" type="line"/>
      <point x="462.0" y="0.0" type="line"/>
    </contour>
  </outline>
</glyph>
<glyph name="seven.lc" format="2">
  <advance width="710"/>
  <outline>
    <contour>
      <point x="54.0" y="556.0" type="line"/>
      <point x="71.0" y="854.0" type="line"/>
      <point x="673.0" y="854.0" type="line"/>
      <point x="673.0" y="788.0" type="line"/>
      <point x="444.0" y="165.0" type="line"/>
      <point x="263.0" y="-381.0" type="line"/>
      <point x="203.0" y="-381.0" type="line"/>
      <point x="203.0" y="-353.0" type="line"/>
      <point x="426.0" y="172.0" type="line"/>
      <point x="622.0" y="706.0" type="line"/>
      <point x="616.0" y="713.0" type="line"/>
      <point x="121.0" y="713.0" type="line"/>
      <point x="65.0" y="556.0" type="line"/>
    </contour>
  </outline>
</glyph>
<glyph name="six.lc" format="2">
  <advance width="784"/>
  <outline>
    <contour>
      <point x="51.0" y="354.0" type="qcurve" smooth="yes"/>
      <point x="35.0" y="633.0"/>
      <point x="346.0" y="1134.0"/>
      <point x="656.0" y="1256.0" type="qcurve"/>
      <point x="669.0" y="1228.0" type="line"/>
      <point x="373.0" y="1103.0"/>
      <point x="174.0" y="617.0"/>
      <point x="183.0" y="353.0" type="qcurve" smooth="yes"/>
      <point x="188.0" y="196.0"/>
      <point x="307.0" y="2.0"/>
      <point x="395.0" y="2.0" type="qcurve" smooth="yes"/>
      <point x="508.0" y="2.0"/>
      <point x="608.0" y="198.0"/>
      <point x="600.0" y="371.0" type="qcurve" smooth="yes"/>
      <point x="595.0" y="474.0"/>
      <point x="496.0" y="600.0"/>
      <point x="414.0" y="600.0" type="qcurve" smooth="yes"/>
      <point x="375.0" y="600.0"/>
      <point x="302.0" y="568.0"/>
      <point x="272.0" y="545.0" type="qcurve"/>
      <point x="266.0" y="559.0" type="line"/>
      <point x="288.0" y="592.0"/>
      <point x="414.0" y="672.0"/>
      <point x="485.0" y="672.0" type="qcurve" smooth="yes"/>
      <point x="585.0" y="672.0"/>
      <point x="744.0" y="539.0"/>
      <point x="744.0" y="386.0" type="qcurve" smooth="yes"/>
      <point x="744.0" y="207.0"/>
      <point x="563.0" y="-20.0"/>
      <point x="390.0" y="-20.0" type="qcurve" smooth="yes"/>
      <point x="227.0" y="-20.0"/>
      <point x="61.0" y="189.0"/>
    </contour>
  </outline>
</glyph>
<glyph name="tildecomb.case" format="2">
  <advance width="896"/>
  <outline>
    <contour>
      <point x="246.0" y="1674.0" type="line"/>
      <point x="260.0" y="1724.0"/>
      <point x="343.0" y="1828.0"/>
      <point x="379.0" y="1828.0" type="qcurve" smooth="yes"/>
      <point x="409.0" y="1828.0"/>
      <point x="450.0" y="1807.0"/>
      <point x="472.0" y="1785.0" type="qcurve" smooth="yes"/>
      <point x="506.0" y="1758.0"/>
      <point x="538.0" y="1730.0"/>
      <point x="564.0" y="1730.0" type="qcurve" smooth="yes"/>
      <point x="585.0" y="1730.0"/>
      <point x="617.0" y="1776.0"/>
      <point x="627.0" y="1805.0" type="qcurve"/>
      <point x="649.0" y="1779.0" type="line"/>
      <point x="633.0" y="1721.0"/>
      <point x="574.0" y="1637.0"/>
      <point x="533.0" y="1637.0" type="qcurve" smooth="yes"/>
      <point x="507.0" y="1637.0"/>
      <point x="467.0" y="1660.0"/>
      <point x="439.0" y="1680.0" type="qcurve" smooth="yes"/>
      <point x="411.0" y="1701.0"/>
      <point x="373.0" y="1737.0"/>
      <point x="351.0" y="1737.0" type="qcurve" smooth="yes"/>
      <point x="324.0" y="1737.0"/>
      <point x="267.0" y="1674.0"/>
      <point x="259.0" y="1652.0" type="qcurve"/>
    </contour>
  </outline>
</glyph>
<glyph name="tildecombstack.case" format="2">
  <advance width="1024"/>
  <outline>
    <contour>
      <point x="284.0" y="1664.0" type="line"/>
      <point x="302.0" y="1707.0"/>
      <point x="395.0" y="1810.0"/>
      <point x="449.0" y="1810.0" type="qcurve" smooth="yes"/>
      <point x="483.0" y="1810.0"/>
      <point x="530.0" y="1798.0"/>
      <point x="561.0" y="1780.0" type="qcurve" smooth="yes"/>
      <point x="597.0" y="1756.0"/>
      <point x="632.0" y="1745.0"/>
      <point x="663.0" y="1745.0" type="qcurve" smooth="yes"/>
      <point x="689.0" y="1745.0"/>
      <point x="729.0" y="1775.0"/>
      <point x="742.0" y="1801.0" type="qcurve"/>
      <point x="771.0" y="1763.0" type="line"/>
      <point x="750.0" y="1713.0"/>
      <point x="678.0" y="1647.0"/>
      <point x="630.0" y="1647.0" type="qcurve" smooth="yes"/>
      <point x="599.0" y="1647.0"/>
      <point x="549.0" y="1656.0"/>
      <point x="517.0" y="1673.0" type="qcurve" smooth="yes"/>
      <point x="479.0" y="1693.0"/>
      <point x="439.0" y="1714.0"/>
      <point x="414.0" y="1714.0" type="qcurve" smooth="yes"/>
      <point x="382.0" y="1714.0"/>
      <point x="315.0" y="1669.0"/>
      <point x="305.0" y="1650.0" type="qcurve"/>
    </contour>
  </outline>
</glyph>
<glyph name="two.tab" format="2">
  <advance width="930"/>
  <outline>
    <contour>
      <point x="96.0" y="0.0" type="line"/>
      <point x="97.84677419354838" y="132.0" type="line"/>
      <point x="111.20967741935483" y="260.0"/>
      <point x="286.60483870967744" y="489.0"/>
      <point x="408.10483870967744" y="620.0" type="qcurve" smooth="yes"/>
      <point x="510.16935483870964" y="728.0"/>
      <point x="610.7177419354839" y="972.0"/>
      <point x="610.7177419354839" y="1153.0" type="qcurve" smooth="yes"/>
      <point x="610.7177419354839" y="1325.0"/>
      <point x="506.0" y="1479.0"/>
      <point x="390.0" y="1479.0" type="qcurve" smooth="yes"/>
      <point x="292.0" y="1479.0"/>
      <point x="175.0" y="1354.0"/>
      <point x="171.0" y="1295.0" type="qcurve"/>
      <point x="133.0" y="1327.0" type="line"/>
      <point x="161.6451612903226" y="1405.0"/>
      <point x="324.0" y="1520.0"/>
      <point x="468.0" y="1520.0" type="qcurve" smooth="yes"/>
      <point x="611.0" y="1520.0"/>
      <point x="776.0" y="1345.0"/>
      <point x="776.0" y="1173.0" type="qcurve" smooth="yes"/>
      <point x="776.0" y="998.0"/>
      <point x="561.1370967741935" y="725.0"/>
      <point x="427.38709677419354" y="593.0" type="qcurve" smooth="yes"/>
      <point x="320.94354838709677" y="485.0"/>
      <point x="160.3951612903226" y="277.0"/>
      <point x="146.13709677419354" y="175.0" type="qcurve"/>
      <point x="152.98387096774195" y="166.0" type="line"/>
      <point x="824.0" y="166.0" type="line"/>
      <point x="824.0" y="0.0" type="line"/>
    </contour>
  </outline>
</glyph>
<glyph name="zero.lc" format="2">
  <advance width="713"/>
  <outline>
    <contour>
      <point x="34.0" y="426.0" type="qcurve" smooth="yes"/>
      <point x="34.0" y="632.0"/>
      <point x="215.0" y="882.0"/>
      <point x="350.0" y="882.0" type="qcurve" smooth="yes"/>
      <point x="485.0" y="882.0"/>
      <point x="679.0" y="638.0"/>
      <point x="679.0" y="431.0" type="qcurve" smooth="yes"/>
      <point x="679.0" y="224.0"/>
      <point x="502.0" y="-20.0"/>
      <point x="365.0" y="-20.0" type="qcurve" smooth="yes"/>
      <point x="229.0" y="-20.0"/>
      <point x="34.0" y="209.0"/>
    </contour>
    <contour>
      <point x="179.0" y="443.0" type="qcurve" smooth="yes"/>
      <point x="179.0" y="187.0"/>
      <point x="286.0" y="6.0"/>
      <point x="356.0" y="6.0" type="qcurve" smooth="yes"/>
      <point x="429.0" y="6.0"/>
      <point x="534.0" y="175.0"/>
      <point x="533.0" y="426.0" type="qcurve" smooth="yes"/>
      <point x="533.0" y="664.0"/>
      <point x="418.0" y="854.0"/>
      <point x="350.0" y="854.0" type="qcurve" smooth="yes"/>
      <point x="277.0" y="854.0"/>
      <point x="179.0" y="672.0"/>
    </contour>
  </outline>
</glyph>
